<?xml version="1.0" encoding="UTF-8" standalone="no"?>
<!-- Created with Inkscape (http://www.inkscape.org/) -->

<svg
   width="210mm"
   height="297mm"
   viewBox="0 0 210 297"
   version="1.1"
   id="svg1"
   inkscape:version="1.4.4 (dcaf3e7, 2026-05-05)"
   sodipodi:docname="Plexiglass engraving.svg"
   xmlns:inkscape="http://www.inkscape.org/namespaces/inkscape"
   xmlns:sodipodi="http://sodipodi.sourceforge.net/DTD/sodipodi-0.dtd"
   xmlns="http://www.w3.org/2000/svg"
   xmlns:svg="http://www.w3.org/2000/svg">
  <sodipodi:namedview
     id="namedview1"
     pagecolor="#ffffff"
     bordercolor="#000000"
     borderopacity="0.25"
     inkscape:showpageshadow="2"
     inkscape:pageopacity="0.0"
     inkscape:pagecheckerboard="0"
     inkscape:deskcolor="#d1d1d1"
     inkscape:document-units="mm"
     inkscape:zoom="1.990573"
     inkscape:cx="248.16974"
     inkscape:cy="370.74751"
     inkscape:window-width="1920"
     inkscape:window-height="992"
     inkscape:window-x="-8"
     inkscape:window-y="-8"
     inkscape:window-maximized="1"
     inkscape:current-layer="layer1" />
  <defs
     id="defs1">
    <clipPath
       clipPathUnits="userSpaceOnUse"
       id="clipPath77011">
      <path
         d="m 63.979,14.834 h 74.919 V 35.867 H 63.979 Z"
         id="path77009" />
    </clipPath>
  </defs>
  <g
     inkscape:label="Layer 1"
     inkscape:groupmode="layer"
     id="layer1">
    <path
       id="rect4"
       style="fill:none;stroke:#ff0000;stroke-width:1.03361;stroke-dasharray:none;stroke-opacity:1"
       d="m 58.130302,98.874585 v 25.424805 h 26.983366 v 7.99279 h 26.999902 v -7.99279 h 26.98285 v -21.85345"
       sodipodi:nodetypes="cccccccc" />
    <path
       id="rect5"
       style="fill:none;stroke:#ff0002;stroke-width:0.987566"
       d="M 58.083992,115.76345 V 56.822887 c 0,-4.728907 3.807027,-8.535934 8.535934,-8.535934 h 63.940564 c 4.72891,0 8.53594,3.807027 8.53594,8.535934 v 58.940563"
       sodipodi:nodetypes="cssssc" />
    <g
       id="g77007"
       clip-path="url(#clipPath77011)"
       style="fill:none;fill-opacity:1;stroke:#000eff;stroke-width:0.197956;stroke-dasharray:none;stroke-opacity:1"
       transform="matrix(0.80524644,0,0,-0.80830856,38.571527,79.235572)">
      <g
         id="g77013"
         transform="translate(91.1153,22.7762)"
         style="fill:none;fill-opacity:1;stroke:#000eff;stroke-width:0.197956;stroke-dasharray:none;stroke-opacity:1" />
      <g
         id="g77017"
         transform="translate(93.8745,21.2955)"
         style="fill:none;fill-opacity:1;stroke:#000eff;stroke-width:0.197956;stroke-dasharray:none;stroke-opacity:1" />
      <g
         id="g77021"
         transform="translate(96.3166,22.2109)"
         style="fill:none;fill-opacity:1;stroke:#000eff;stroke-width:0.197956;stroke-dasharray:none;stroke-opacity:1" />
      <g
         id="g77025"
         transform="translate(98.0731,20.4096)"
         style="fill:none;fill-opacity:1;stroke:#000eff;stroke-width:0.197956;stroke-dasharray:none;stroke-opacity:1" />
      <g
         id="g77029"
         transform="translate(101.17,20.4853)"
         style="fill:none;fill-opacity:1;stroke:#000eff;stroke-width:0.197956;stroke-dasharray:none;stroke-opacity:1" />
      <g
         id="g77033"
         transform="translate(104.2808,22.5685)"
         style="fill:none;fill-opacity:1;stroke:#000eff;stroke-width:0.197956;stroke-dasharray:none;stroke-opacity:1" />
      <g
         id="g77037"
         transform="translate(108.6193,20.7127)"
         style="fill:none;fill-opacity:1;stroke:#000eff;stroke-width:0.197956;stroke-dasharray:none;stroke-opacity:1" />
      <g
         id="g77041"
         transform="translate(111.0091,20.4756)"
         style="fill:none;fill-opacity:1;stroke:#000eff;stroke-width:0.197956;stroke-dasharray:none;stroke-opacity:1" />
      <g
         id="g77045"
         transform="translate(113.9679,20.4853)"
         style="fill:none;fill-opacity:1;stroke:#000eff;stroke-width:0.197956;stroke-dasharray:none;stroke-opacity:1" />
      <g
         id="g77049"
         transform="translate(116.7835,22.7762)"
         style="fill:none;fill-opacity:1;stroke:#000eff;stroke-width:0.197956;stroke-dasharray:none;stroke-opacity:1" />
      <g
         id="g77053"
         transform="translate(118.897,22.2109)"
         style="fill:none;fill-opacity:1;stroke:#000eff;stroke-width:0.197956;stroke-dasharray:none;stroke-opacity:1" />
      <g
         id="g77057"
         transform="translate(121.7649,20.4756)"
         style="fill:none;fill-opacity:1;stroke:#000eff;stroke-width:0.197956;stroke-dasharray:none;stroke-opacity:1" />
      <g
         id="g77061"
         transform="translate(90.8649,18.2491)"
         style="fill:none;fill-opacity:1;stroke:#000eff;stroke-width:0.197956;stroke-dasharray:none;stroke-opacity:1" />
      <g
         id="g77065"
         transform="translate(93.7113,17.1084)"
         style="fill:none;fill-opacity:1;stroke:#000eff;stroke-width:0.197956;stroke-dasharray:none;stroke-opacity:1" />
      <g
         id="g77069"
         transform="translate(96.2584,17.6834)"
         style="fill:none;fill-opacity:1;stroke:#000eff;stroke-width:0.197956;stroke-dasharray:none;stroke-opacity:1" />
      <g
         id="g77073"
         transform="translate(100.4956,15.9521)"
         style="fill:none;fill-opacity:1;stroke:#000eff;stroke-width:0.197956;stroke-dasharray:none;stroke-opacity:1" />
      <g
         id="g77077"
         transform="translate(101.6961,15.882)"
         style="fill:none;fill-opacity:1;stroke:#000eff;stroke-width:0.197956;stroke-dasharray:none;stroke-opacity:1" />
      <g
         id="g77081"
         transform="translate(103.874,15.8861)"
         style="fill:none;fill-opacity:1;stroke:#000eff;stroke-width:0.197956;stroke-dasharray:none;stroke-opacity:1" />
      <g
         id="g77085"
         transform="translate(105.9878,15.882)"
         style="fill:none;fill-opacity:1;stroke:#000eff;stroke-width:0.197956;stroke-dasharray:none;stroke-opacity:1" />
      <g
         id="g77089"
         transform="translate(109.085,15.9577)"
         style="fill:none;fill-opacity:1;stroke:#000eff;stroke-width:0.197956;stroke-dasharray:none;stroke-opacity:1" />
      <g
         id="g77093"
         transform="translate(112.1955,18.041)"
         style="fill:none;fill-opacity:1;stroke:#000eff;stroke-width:0.197956;stroke-dasharray:none;stroke-opacity:1" />
      <g
         id="g77097"
         transform="translate(116.1608,16.5234)"
         style="fill:none;fill-opacity:1;stroke:#000eff;stroke-width:0.197956;stroke-dasharray:none;stroke-opacity:1" />
      <g
         id="g77101"
         transform="translate(117.9133,16.8343)"
         style="fill:none;fill-opacity:1;stroke:#000eff;stroke-width:0.197956;stroke-dasharray:none;stroke-opacity:1" />
      <g
         id="g77105"
         transform="translate(120.9055,16.5234)"
         style="fill:none;fill-opacity:1;stroke:#000eff;stroke-width:0.197956;stroke-dasharray:none;stroke-opacity:1" />
      <g
         id="g77109"
         transform="translate(123.4955,18.2491)"
         style="fill:none;fill-opacity:1;stroke:#000eff;stroke-width:0.197956;stroke-dasharray:none;stroke-opacity:1" />
      <g
         id="g77113"
         transform="translate(125.8015,15.9481)"
         style="fill:none;fill-opacity:1;stroke:#000eff;stroke-width:0.197956;stroke-dasharray:none;stroke-opacity:1" />
      <g
         id="g77117"
         transform="translate(129.5827,15.882)"
         style="fill:none;fill-opacity:1;stroke:#000eff;stroke-width:0.197956;stroke-dasharray:none;stroke-opacity:1" />
      <g
         id="g77121"
         transform="translate(132.1472,16.5234)"
         style="fill:none;fill-opacity:1;stroke:#000eff;stroke-width:0.197956;stroke-dasharray:none;stroke-opacity:1" />
      <g
         id="g77125"
         transform="translate(95.0118,33.1421)"
         style="fill:none;fill-opacity:1;stroke:#000eff;stroke-width:0.197956;stroke-dasharray:none;stroke-opacity:1" />
      <g
         id="g77129"
         transform="translate(101.9029,32.7016)"
         style="fill:none;fill-opacity:1;stroke:#000eff;stroke-width:0.197956;stroke-dasharray:none;stroke-opacity:1" />
      <g
         id="g77133"
         transform="translate(110.378,26.3142)"
         style="fill:none;fill-opacity:1;stroke:#000eff;stroke-width:0.197956;stroke-dasharray:none;stroke-opacity:1" />
      <g
         id="g77137"
         transform="translate(118.9686,32.7541)"
         style="fill:none;fill-opacity:1;stroke:#000eff;stroke-width:0.197956;stroke-dasharray:none;stroke-opacity:1" />
      <g
         id="g77141"
         transform="translate(126.7933,29.2194)"
         style="fill:none;fill-opacity:1;stroke:#000eff;stroke-width:0.197956;stroke-dasharray:none;stroke-opacity:1" />
      <g
         id="g77145"
         transform="translate(130.8735,32.775)"
         style="fill:none;fill-opacity:1;stroke:#000eff;stroke-width:0.197956;stroke-dasharray:none;stroke-opacity:1" />
      <g
         id="g77151"
         transform="translate(70.2948,31.412)"
         style="fill:none;fill-opacity:1;stroke:#000eff;stroke-width:0.197956;stroke-dasharray:none;stroke-opacity:1">
        <path
           d="M 0,0 Z"
           style="fill:none;fill-opacity:1;fill-rule:nonzero;stroke:#000eff;stroke-width:0.197956;stroke-dasharray:none;stroke-opacity:1"
           id="path77153" />
      </g>
      <g
         id="g77155"
         transform="translate(66.1688,30.4947)"
         style="fill:none;fill-opacity:1;stroke:#000eff;stroke-width:0.197956;stroke-dasharray:none;stroke-opacity:1">
        <path
           d="M 0,0 C 0.092,0.1 0.173,0.205 0.24,0.311 0.323,0.442 0.393,0.58 0.463,0.722 0.545,0.887 0.619,1.009 0.702,1.115 0.947,1.427 1.183,1.599 1.468,1.671 1.63,1.713 1.827,1.643 1.916,1.514 L 1.947,1.468 C 2.008,1.379 2.063,1.299 2.121,1.221 2.311,0.963 2.57,0.794 2.936,0.69 3.024,0.666 3.091,0.641 3.149,0.612 3.308,0.533 3.45,0.46 3.585,0.377 3.749,0.277 3.917,0.203 4.098,0.15 4.298,0.092 4.491,0.03 4.657,-0.091 4.834,-0.221 4.922,-0.378 4.934,-0.583 4.939,-0.663 4.956,-0.751 4.986,-0.846 5.05,-1.047 5.18,-1.226 5.372,-1.379 5.427,-1.423 5.488,-1.461 5.546,-1.498 l 0.021,-0.013 c 0.021,-0.014 0.042,-0.027 0.063,-0.041 0.194,-0.13 0.413,-0.163 0.583,-0.178 0.037,-0.003 0.071,0.004 0.114,0.013 0.033,0.008 0.06,0.014 0.086,0.014 0.133,0 0.257,0.043 0.402,0.141 0.102,0.068 0.201,0.14 0.3,0.213 L 7.181,-1.3 c 0.146,0.105 0.274,0.217 0.391,0.342 0.047,0.05 0.104,0.118 0.12,0.193 0.021,0.098 0.037,0.199 -0.01,0.266 C 7.647,-0.449 7.583,-0.42 7.475,-0.404 7.466,-0.403 7.457,-0.4 7.447,-0.397 7.429,-0.392 7.415,-0.388 7.401,-0.386 7.146,-0.352 6.973,-0.403 6.836,-0.542 L 6.799,-0.58 C 6.766,-0.614 6.735,-0.645 6.703,-0.674 L 6.653,-0.72 C 6.589,-0.778 6.532,-0.829 6.467,-0.871 6.392,-0.918 6.3,-0.94 6.169,-0.942 c -0.182,0 -0.318,0.057 -0.427,0.179 -0.038,0.042 -0.08,0.086 -0.125,0.124 -0.061,0.05 -0.096,0.121 -0.129,0.189 l -0.011,0.022 c -0.056,0.113 -0.076,0.24 -0.068,0.414 0.004,0.069 0.025,0.123 0.067,0.168 0.104,0.109 0.23,0.182 0.386,0.224 0.169,0.045 0.358,0.096 0.532,0.17 0.127,0.055 0.25,0.123 0.368,0.189 0.067,0.036 0.126,0.069 0.185,0.1 C 7.069,0.9 7.19,0.935 7.306,0.94 L 7.337,0.941 C 7.628,0.941 7.808,0.768 7.909,0.624 8.057,0.411 8.137,0.159 8.142,-0.107 L 8.144,-0.165 C 8.146,-0.227 8.148,-0.283 8.141,-0.34 8.123,-0.487 8.181,-0.61 8.242,-0.723 8.248,-0.735 8.256,-0.746 8.27,-0.763 8.385,-0.916 8.451,-1.086 8.521,-1.266 L 8.528,-1.285 C 8.574,-1.404 8.592,-1.515 8.582,-1.624 8.565,-1.831 8.483,-1.965 8.332,-2.032 8.194,-2.093 8.044,-2.148 7.912,-2.196 L 7.754,-2.255 C 7.591,-2.313 7.423,-2.374 7.287,-2.506 7.211,-2.579 7.127,-2.643 7.047,-2.705 6.969,-2.765 6.891,-2.825 6.82,-2.891 6.695,-3.008 6.545,-3.09 6.373,-3.135 6.222,-3.174 6.102,-3.136 6.021,-3.024 5.998,-2.993 5.974,-2.963 5.95,-2.932 5.905,-2.875 5.863,-2.822 5.83,-2.764 5.746,-2.618 5.617,-2.559 5.448,-2.514 5.3,-2.475 5.159,-2.454 5.016,-2.448 4.945,-2.444 4.872,-2.421 4.802,-2.399 L 4.783,-2.393 C 4.64,-2.348 4.56,-2.228 4.495,-2.106 4.47,-2.061 4.45,-2.013 4.429,-1.965 4.406,-1.909 4.384,-1.859 4.358,-1.811 4.329,-1.755 4.296,-1.7 4.263,-1.646 c -0.045,0.073 -0.09,0.147 -0.127,0.225 -0.052,0.109 -0.132,0.193 -0.208,0.274 -0.057,0.06 -0.104,0.109 -0.144,0.166 -0.03,0.042 -0.074,0.072 -0.117,0.102 -0.019,0.013 -0.032,0.022 -0.044,0.031 l -0.04,0.03 c -0.069,0.052 -0.14,0.105 -0.213,0.152 -0.067,0.044 -0.137,0.083 -0.208,0.122 l -0.074,0.042 c -0.011,0.007 -0.021,0.013 -0.032,0.02 -0.045,0.029 -0.082,0.053 -0.124,0.064 -0.185,0.048 -0.346,0.134 -0.516,0.226 -0.056,0.03 -0.112,0.06 -0.168,0.088 L 2.204,-0.082 C 2.133,-0.047 2.059,-0.011 1.994,0.037 1.866,0.132 1.715,0.197 1.504,0.247 1.346,0.283 1.205,0.263 1.093,0.188 1.005,0.128 0.954,0.059 0.938,-0.023 0.902,-0.201 1.044,-0.5 1.204,-0.585 1.219,-0.593 1.237,-0.597 1.259,-0.599 l 0.112,-0.01 c 0.096,-0.009 0.194,-0.018 0.292,-0.021 0.2,-0.007 0.39,-0.059 0.582,-0.16 0.044,-0.023 0.088,-0.048 0.132,-0.072 L 2.388,-0.868 C 2.454,-0.906 2.519,-0.943 2.587,-0.976 2.954,-1.159 3.265,-1.434 3.535,-1.817 3.671,-2.01 3.811,-2.198 3.965,-2.406 4.059,-2.534 4.117,-2.658 4.142,-2.786 4.159,-2.878 4.141,-2.965 4.089,-3.034 4.022,-3.124 3.947,-3.212 3.882,-3.289 3.848,-3.328 3.816,-3.367 3.784,-3.406 3.676,-3.536 3.61,-3.67 3.58,-3.815 3.532,-4.053 3.462,-4.294 3.401,-4.506 L 3.386,-4.56 C 3.341,-4.715 3.312,-4.88 3.299,-5.05 3.284,-5.241 3.291,-5.433 3.297,-5.618 3.302,-5.773 3.333,-5.917 3.387,-6.048 3.464,-6.231 3.553,-6.414 3.63,-6.571 3.66,-6.631 3.693,-6.69 3.726,-6.748 L 3.744,-6.78 C 3.771,-6.828 3.798,-6.877 3.823,-6.926 3.928,-7.132 4.013,-7.304 4.09,-7.467 4.112,-7.514 4.131,-7.564 4.15,-7.612 4.173,-7.671 4.201,-7.744 4.237,-7.81 4.315,-7.953 4.357,-8.103 4.403,-8.261 L 4.427,-8.344 C 4.462,-8.463 4.462,-8.473 4.435,-8.588 L 4.429,-8.617 C 4.4,-8.739 4.334,-8.845 4.227,-8.942 4.17,-8.992 4.123,-9 4.06,-8.961 L 3.96,-8.9 c -0.158,0.097 -0.32,0.196 -0.47,0.309 -0.184,0.139 -0.312,0.325 -0.417,0.606 -0.021,0.056 -0.04,0.112 -0.06,0.169 -0.054,0.159 -0.11,0.32 -0.197,0.472 C 2.807,-7.328 2.802,-7.32 2.8,-7.311 2.715,-7.008 2.575,-6.723 2.44,-6.448 l -0.087,0.179 c -0.032,0.066 -0.065,0.131 -0.099,0.196 -0.048,0.093 -0.09,0.175 -0.129,0.26 -0.066,0.144 -0.104,0.291 -0.141,0.468 -0.015,0.065 -0.013,0.141 0.003,0.207 0.055,0.215 0.123,0.403 0.209,0.576 l 0.015,0.031 c 0.087,0.176 0.185,0.375 0.269,0.576 0.059,0.141 0.113,0.299 0.17,0.499 0.036,0.125 0.052,0.232 0.051,0.326 -10e-4,0.077 0,0.154 0.002,0.232 0.004,0.185 0.008,0.37 -0.028,0.553 C 2.623,-2.071 2.401,-1.776 2.046,-1.819 1.873,-1.84 1.697,-2.02 1.691,-2.182 1.686,-2.3 1.712,-2.417 1.77,-2.538 1.784,-2.568 1.8,-2.597 1.815,-2.626 1.856,-2.701 1.889,-2.763 1.907,-2.83 1.979,-3.093 1.951,-3.367 1.823,-3.644 L 1.765,-3.768 C 1.682,-3.949 1.577,-4.174 1.484,-4.391 1.442,-4.49 1.411,-4.595 1.381,-4.697 L 1.362,-4.76 C 1.346,-4.817 1.325,-4.871 1.304,-4.926 L 1.298,-4.942 C 1.258,-5.043 1.217,-5.148 1.202,-5.264 1.192,-5.34 1.179,-5.436 1.206,-5.534 1.277,-5.797 1.408,-6.038 1.547,-6.281 1.692,-6.534 1.806,-6.74 1.905,-6.931 1.941,-7 1.967,-7.075 1.991,-7.142 c 0.01,-0.03 0.021,-0.059 0.033,-0.089 0.015,-0.041 0.032,-0.081 0.049,-0.122 l 0.006,-0.013 c 0.045,-0.105 0.087,-0.205 0.11,-0.31 0.057,-0.263 0.194,-0.484 0.328,-0.699 L 2.586,-8.486 C 2.609,-8.524 2.633,-8.561 2.657,-8.598 L 2.669,-8.617 C 2.692,-8.652 2.713,-8.686 2.734,-8.721 2.753,-8.752 2.771,-8.783 2.789,-8.814 L 2.816,-8.86 C 2.864,-8.946 2.908,-9.022 2.957,-9.096 3.023,-9.197 3.101,-9.296 3.226,-9.339 3.38,-9.393 3.542,-9.4 3.7,-9.361 c 0.136,0.034 0.241,0.065 0.341,0.112 0.093,0.044 0.16,0.033 0.26,-0.046 0.013,-0.01 0.021,-0.024 0.03,-0.039 0.012,-0.02 0.02,-0.033 0.03,-0.045 0.254,-0.314 0.298,-0.664 0.134,-1.071 -0.014,-0.036 -0.028,-0.071 -0.036,-0.105 -0.009,-0.036 -0.019,-0.071 -0.029,-0.107 -0.027,-0.096 -0.054,-0.191 -0.058,-0.288 -0.008,-0.183 0.051,-0.307 0.175,-0.367 0.078,-0.039 0.201,-0.091 0.34,-0.081 0.275,0.019 0.483,0.232 0.494,0.506 0.004,0.102 -0.027,0.194 -0.057,0.284 -0.009,0.028 -0.018,0.056 -0.026,0.084 -0.075,0.255 -0.11,0.487 -0.108,0.711 v 0.126 0.063 c 0,0.078 0,0.157 10e-4,0.235 0.002,0.094 -0.02,0.183 -0.041,0.269 l -0.014,0.056 c -0.029,0.13 -0.089,0.246 -0.146,0.359 l -0.009,0.019 c -0.078,0.151 -0.1,0.324 -0.063,0.5 0.041,0.2 0.028,0.413 -0.041,0.67 -0.025,0.092 -0.072,0.177 -0.118,0.259 -0.017,0.031 -0.035,0.062 -0.051,0.093 -0.043,0.086 -0.088,0.171 -0.132,0.257 l -0.042,0.079 c -0.1,0.192 -0.2,0.384 -0.296,0.577 -0.118,0.237 -0.178,0.49 -0.181,0.751 0,0.052 0,0.105 10e-4,0.157 0,0.074 0,0.148 -10e-4,0.221 -0.004,0.183 0.028,0.373 0.103,0.617 0.018,0.06 0.044,0.118 0.069,0.174 0.017,0.038 0.033,0.074 0.047,0.111 0.079,0.202 0.108,0.414 0.135,0.619 l 0.007,0.048 c 0.005,0.041 0.011,0.082 0.017,0.123 0.043,0.28 0.193,0.402 0.467,0.373 0.012,-10e-4 0.023,-0.005 0.04,-0.012 0.014,-0.006 0.03,-0.012 0.047,-0.015 0.278,-0.045 0.529,-0.16 0.794,-0.281 C 5.862,-3.401 5.901,-3.464 5.909,-3.569 5.923,-3.753 5.858,-3.923 5.709,-4.087 5.584,-4.225 5.466,-4.367 5.359,-4.508 5.313,-4.567 5.282,-4.622 5.261,-4.674 5.227,-4.765 5.22,-4.86 5.213,-4.952 5.209,-5.022 5.203,-5.094 5.185,-5.164 5.18,-5.183 5.184,-5.202 5.189,-5.212 5.223,-5.278 5.22,-5.347 5.217,-5.42 5.215,-5.451 5.214,-5.481 5.215,-5.511 5.222,-5.706 5.263,-5.896 5.336,-6.076 5.379,-6.18 5.424,-6.284 5.47,-6.387 5.53,-6.525 5.588,-6.657 5.639,-6.789 5.686,-6.911 5.723,-7.05 5.748,-7.201 5.782,-7.407 5.832,-7.593 5.899,-7.772 5.93,-7.853 5.962,-7.935 5.993,-8.016 l 0.011,-0.028 c 0.066,-0.168 0.13,-0.331 0.187,-0.494 0.067,-0.192 0.099,-0.378 0.094,-0.554 -0.007,-0.25 0.004,-0.522 0.033,-0.829 0.001,-0.016 0.005,-0.029 0.008,-0.04 0.005,-0.015 0.008,-0.026 0.009,-0.037 0.007,-0.111 0.046,-0.216 0.084,-0.316 0.027,-0.072 0.048,-0.129 0.063,-0.189 0.031,-0.122 0.036,-0.224 0.016,-0.313 -0.062,-0.271 -0.212,-0.493 -0.35,-0.674 -0.03,-0.04 -0.061,-0.078 -0.092,-0.117 l -0.031,-0.04 C 5.95,-11.741 5.864,-11.848 5.789,-11.961 5.714,-12.075 5.618,-12.185 5.496,-12.296 5.453,-12.334 5.397,-12.361 5.343,-12.387 L 5.317,-12.4 c -0.172,-0.084 -0.345,-0.165 -0.519,-0.246 -0.102,-0.047 -0.164,-0.124 -0.176,-0.216 -0.014,-0.12 -0.023,-0.3 0.072,-0.47 0.037,-0.067 0.091,-0.115 0.15,-0.131 0.148,-0.042 0.286,-0.038 0.405,0.013 0.099,0.041 0.173,0.102 0.234,0.193 0.037,0.054 0.077,0.107 0.118,0.159 l 0.009,0.011 c 0.051,0.065 0.103,0.133 0.147,0.207 0.038,0.062 0.087,0.122 0.145,0.174 0.059,0.055 0.123,0.107 0.186,0.158 0.04,0.032 0.076,0.061 0.111,0.09 0.028,0.024 0.057,0.046 0.087,0.069 0.073,0.055 0.145,0.11 0.197,0.181 0.136,0.185 0.251,0.392 0.342,0.615 0.057,0.14 0.108,0.256 0.196,0.36 0.039,0.046 0.073,0.098 0.102,0.14 0.039,0.059 0.074,0.111 0.117,0.158 0.065,0.069 0.043,0.133 0.024,0.189 -0.006,0.019 -0.018,0.034 -0.027,0.047 -0.009,0.012 -0.013,0.017 -0.016,0.023 -0.142,0.251 -0.208,0.488 -0.204,0.725 v 0.032 c 0.002,0.112 0.004,0.215 0.023,0.321 0.017,0.093 0.014,0.189 0.011,0.281 -0.002,0.057 -0.004,0.11 -0.003,0.162 0.005,0.126 -0.016,0.255 -0.067,0.42 -0.067,0.216 -0.133,0.413 -0.201,0.602 -0.046,0.127 -0.096,0.253 -0.146,0.378 -0.027,0.066 -0.053,0.133 -0.079,0.2 l -0.047,0.117 c -0.037,0.093 -0.075,0.19 -0.106,0.287 -0.011,0.033 -0.022,0.067 -0.034,0.101 -0.033,0.097 -0.063,0.184 -0.08,0.28 -0.04,0.23 -0.106,0.461 -0.198,0.686 -0.092,0.225 -0.119,0.468 -0.142,0.718 -0.005,0.059 0.009,0.122 0.022,0.183 l 0.008,0.04 c 0.004,0.019 0.008,0.039 0.011,0.059 l 0.003,0.016 c 0.014,0.081 0.026,0.154 0.059,0.216 0.046,0.089 0.088,0.18 0.129,0.271 0.081,0.174 0.163,0.353 0.273,0.513 0.133,0.195 0.281,0.341 0.452,0.447 l 0.073,0.045 c 0.196,0.122 0.399,0.248 0.601,0.367 0.233,0.138 0.471,0.298 0.748,0.504 l 0.047,0.035 c 0.08,0.06 0.155,0.117 0.246,0.157 0.208,0.092 0.363,0.116 0.515,0.081 0.217,-0.051 0.432,-0.123 0.642,-0.212 0.275,-0.117 0.564,-0.161 0.784,-0.186 0.179,-0.021 0.352,-0.057 0.513,-0.093 0.137,-0.031 0.248,-0.052 0.351,-0.067 0.111,-0.016 0.225,0.008 0.318,0.03 0.239,0.056 0.487,0.114 0.698,0.264 0.173,0.124 0.376,0.188 0.658,0.207 0.037,0.003 0.072,-0.002 0.116,0.008 0.116,0.025 0.247,0.054 0.372,0.089 0.226,0.062 0.375,0.168 0.469,0.334 0.055,0.098 0.047,0.241 -0.021,0.373 -0.061,0.119 -0.156,0.196 -0.255,0.207 -0.056,0.006 -0.105,0.009 -0.151,0.009 -0.192,0 -0.345,-0.056 -0.466,-0.17 -0.104,-0.098 -0.222,-0.191 -0.351,-0.277 -0.187,-0.125 -0.393,-0.211 -0.63,-0.261 -0.279,-0.059 -0.494,-0.085 -0.699,-0.085 h -0.049 c -0.096,0.002 -0.19,0.003 -0.285,0 l -0.036,-10e-4 c -0.122,0 -0.239,0.022 -0.349,0.065 -0.308,0.121 -0.633,0.171 -0.921,0.214 -0.166,0.026 -0.32,0.078 -0.473,0.161 -0.115,0.062 -0.23,0.134 -0.272,0.266 -0.04,0.123 -0.077,0.24 -0.07,0.368 0.005,0.081 -0.005,0.161 -0.014,0.24 L 9.006,-0.877 C 8.991,-0.73 8.943,-0.599 8.897,-0.473 L 8.885,-0.44 C 8.871,-0.402 8.856,-0.364 8.841,-0.326 8.793,-0.207 8.75,-0.098 8.741,0.026 8.73,0.145 8.695,0.266 8.663,0.373 8.639,0.451 8.613,0.527 8.588,0.603 L 8.582,0.619 C 8.547,0.722 8.511,0.828 8.482,0.933 8.431,1.119 8.364,1.262 8.269,1.385 8.049,1.669 7.691,1.777 7.386,1.647 7.221,1.577 7.038,1.534 6.824,1.514 6.754,1.507 6.685,1.493 6.618,1.479 L 6.549,1.465 C 6.37,1.429 6.206,1.352 6.048,1.278 L 5.981,1.247 C 5.869,1.195 5.783,1.111 5.701,1.031 5.648,0.98 5.599,0.933 5.544,0.891 5.508,0.864 5.481,0.83 5.453,0.794 5.427,0.76 5.404,0.73 5.376,0.708 5.255,0.612 5.144,0.569 5.017,0.568 4.788,0.568 4.592,0.654 4.384,0.744 4.335,0.765 4.286,0.786 4.237,0.807 4.19,0.826 4.145,0.85 4.102,0.874 L 4.09,0.881 C 4.03,0.913 3.968,0.947 3.902,0.969 3.682,1.042 3.461,1.152 3.186,1.323 2.894,1.506 2.605,1.681 2.284,1.813 2.111,1.884 2.012,2.047 2.046,2.202 2.084,2.367 2.153,2.509 2.249,2.621 2.407,2.806 2.613,2.958 2.864,3.074 2.974,3.125 3.094,3.158 3.21,3.19 L 3.271,3.208 C 3.372,3.236 3.469,3.283 3.57,3.35 3.624,3.386 3.675,3.426 3.726,3.465 3.778,3.505 3.829,3.545 3.881,3.58 4.172,3.772 4.455,3.898 4.748,3.966 4.908,4.003 5.064,4.05 5.195,4.092 5.309,4.128 5.422,4.166 5.535,4.205 5.634,4.238 5.722,4.268 5.811,4.297 5.985,4.354 6.191,4.42 6.401,4.481 6.476,4.503 6.552,4.511 6.633,4.519 6.689,4.525 6.734,4.53 6.778,4.538 6.909,4.561 7.044,4.569 7.174,4.577 7.227,4.581 7.279,4.584 7.331,4.588 7.628,4.611 7.843,4.603 8.057,4.56 8.084,4.555 8.111,4.55 8.139,4.546 8.24,4.528 8.345,4.51 8.434,4.456 L 8.555,4.38 C 8.624,4.337 8.694,4.294 8.764,4.251 8.888,4.177 9.039,4.1 9.219,4.121 9.356,4.138 9.472,4.202 9.598,4.277 9.753,4.369 9.92,4.462 10.114,4.5 c 0.059,0.011 0.117,0.025 0.175,0.038 0.087,0.021 0.165,0.04 0.246,0.051 0.105,0.016 0.182,0.076 0.251,0.129 l 0.041,0.031 c 0.054,0.04 0.059,0.098 0.062,0.141 0.006,0.087 -0.039,0.149 -0.077,0.204 l -0.024,0.035 c -0.11,0.167 -0.252,0.243 -0.425,0.226 -0.026,-0.002 -0.048,-0.002 -0.082,0 L 10.245,5.356 C 10.09,5.356 9.943,5.302 9.811,5.197 9.741,5.141 9.664,5.096 9.576,5.06 9.467,5.015 9.316,4.962 9.166,4.98 8.977,5.004 8.806,5.065 8.656,5.163 8.491,5.272 8.327,5.325 8.156,5.325 L 8.13,5.324 C 7.983,5.32 7.834,5.321 7.685,5.322 7.615,5.323 7.544,5.324 7.473,5.324 7.297,5.324 7.088,5.32 6.876,5.296 L 6.81,5.288 C 6.715,5.278 6.616,5.268 6.521,5.243 6.423,5.217 6.324,5.188 6.227,5.159 6.11,5.124 5.98,5.086 5.853,5.055 5.732,5.024 5.612,4.995 5.495,4.951 L 5.416,4.922 C 5.292,4.875 5.152,4.822 5.014,4.796 4.791,4.753 4.595,4.698 4.416,4.629 4.383,4.616 4.35,4.604 4.317,4.593 4.254,4.571 4.195,4.551 4.139,4.525 L 4.096,4.506 C 4.013,4.469 3.927,4.431 3.848,4.373 3.679,4.249 3.457,4.087 3.227,3.94 3.043,3.822 2.88,3.749 2.712,3.711 2.577,3.68 2.422,3.639 2.284,3.554 L 2.222,3.515 C 2.194,3.497 2.168,3.48 2.14,3.464 1.917,3.329 1.768,3.166 1.685,2.966 L 1.659,2.9 C 1.638,2.85 1.617,2.801 1.598,2.75 1.506,2.503 1.359,2.337 1.149,2.243 L 1.095,2.218 C 0.983,2.168 0.875,2.119 0.764,2.086 0.528,2.017 0.372,1.846 0.234,1.695 0.178,1.634 0.129,1.555 0.091,1.466 L 0.06,1.395 C -0.009,1.235 -0.071,1.091 -0.157,0.953 -0.277,0.759 -0.396,0.59 -0.523,0.438 -0.597,0.35 -0.671,0.255 -0.744,0.156 -0.808,0.069 -0.873,-0.026 -0.955,-0.151 -0.995,-0.212 -1.034,-0.278 -1.074,-0.353 -1.09,-0.383 -1.103,-0.414 -1.115,-0.446 -1.123,-0.465 -1.129,-0.481 -1.136,-0.497 L -1.243,-0.74 C -1.327,-0.929 -1.406,-1.111 -1.482,-1.294 -1.52,-1.384 -1.549,-1.478 -1.577,-1.568 L -1.606,-1.661 C -1.621,-1.71 -1.635,-1.759 -1.649,-1.808 L -1.671,-1.884 C -1.689,-1.946 -1.708,-2.007 -1.727,-2.068 -1.782,-2.245 -1.845,-2.444 -1.872,-2.648 -1.9,-2.851 -1.95,-3.064 -2.03,-3.319 -2.068,-3.442 -2.085,-3.567 -2.101,-3.687 l -0.012,-0.091 c -0.015,-0.1 -0.019,-0.204 -0.022,-0.295 -0.002,-0.057 -0.004,-0.115 -0.008,-0.172 -0.01,-0.142 -0.012,-0.286 -0.013,-0.426 -10e-4,-0.174 -0.003,-0.351 -0.021,-0.527 -0.013,-0.115 -0.01,-0.232 -0.007,-0.345 0.002,-0.056 0.003,-0.108 0.003,-0.16 l -10e-4,-0.205 c -10e-4,-0.1 -10e-4,-0.2 0.002,-0.3 0.005,-0.154 0.018,-0.308 0.031,-0.467 l 0.005,-0.068 c 0.006,-0.081 0.011,-0.165 0.035,-0.244 0.064,-0.207 0.134,-0.413 0.213,-0.642 l 0.076,-0.222 c 0.003,-0.01 0.008,-0.018 0.014,-0.027 l 0.101,-0.197 c 0.077,-0.148 0.153,-0.296 0.234,-0.442 0.13,-0.237 0.219,-0.495 0.298,-0.723 0.026,-0.074 0.047,-0.151 0.067,-0.225 0.028,-0.107 0.056,-0.211 0.096,-0.308 0.083,-0.203 0.177,-0.403 0.268,-0.596 0.035,-0.075 0.07,-0.15 0.105,-0.226 0.034,-0.074 0.071,-0.149 0.11,-0.221 0.147,-0.274 0.348,-0.434 0.615,-0.489 0.132,-0.028 0.261,-0.09 0.381,-0.152 0.229,-0.119 0.351,-0.292 0.374,-0.527 0.005,-0.057 0.017,-0.114 0.028,-0.169 0.013,-0.065 0.025,-0.122 0.029,-0.18 0.017,-0.22 0.156,-0.363 0.291,-0.502 l 0.02,-0.021 c 0.093,-0.097 0.209,-0.176 0.312,-0.246 0.05,-0.035 0.099,-0.069 0.146,-0.104 0.032,-0.023 0.063,-0.048 0.094,-0.073 l 0.065,-0.052 c 0.042,-0.032 0.083,-0.066 0.125,-0.101 0.11,-0.091 0.217,-0.179 0.334,-0.248 0.091,-0.052 0.18,-0.113 0.258,-0.166 l 0.027,-0.018 c 0.038,-0.026 0.077,-0.052 0.116,-0.077 0.148,-0.096 0.294,-0.194 0.44,-0.293 0.111,-0.075 0.222,-0.15 0.334,-0.223 0.051,-0.035 0.11,-0.058 0.172,-0.083 0.12,-0.048 0.241,-0.094 0.362,-0.14 l 0.027,-0.01 c 0.121,-0.045 0.242,-0.09 0.364,-0.132 0.048,-0.017 0.097,-0.032 0.146,-0.047 0.062,-0.019 0.12,-0.037 0.177,-0.058 0.049,-0.018 0.097,-0.038 0.145,-0.059 0.074,-0.032 0.136,-0.059 0.2,-0.081 0.087,-0.03 0.175,-0.057 0.263,-0.084 l 0.021,-0.006 c 0.073,-0.023 0.145,-0.045 0.217,-0.069 0.187,-0.063 0.389,-0.106 0.638,-0.133 0.136,-0.016 0.274,-0.031 0.406,-0.073 0.042,-0.013 0.082,-0.028 0.124,-0.044 l 0.016,-0.006 c 0.061,-0.023 0.121,-0.046 0.182,-0.063 0.202,-0.056 0.413,-0.116 0.633,-0.1 0.099,0.006 0.198,0.005 0.296,0 0.015,-0.001 0.029,-0.001 0.043,-0.001 0.149,0 0.294,0.045 0.457,0.143 0.042,0.026 0.082,0.055 0.122,0.084 0.066,0.049 0.134,0.099 0.215,0.131 0.022,0.008 0.039,0.027 0.055,0.044 0.007,0.008 0.014,0.016 0.022,0.022 0.042,0.037 0.04,0.074 0.024,0.12 -0.039,0.112 -0.053,0.232 -0.042,0.359 l 10e-4,0.018 c 0.002,0.03 0.004,0.047 0.012,0.061 0.071,0.124 0.133,0.227 0.202,0.331 0.065,0.096 0.097,0.207 0.102,0.35 0.004,0.115 -0.05,0.195 -0.159,0.238 -0.181,0.071 -0.337,0.071 -0.482,10e-4 -0.1,-0.049 -0.205,-0.113 -0.187,-0.266 -0.001,-0.02 -0.004,-0.029 -0.006,-0.035 -0.004,-0.014 -0.008,-0.027 -0.01,-0.054 -0.002,-0.044 -0.004,-0.093 0.002,-0.142 0.005,-0.04 0.013,-0.081 0.02,-0.121 0.018,-0.093 0.034,-0.181 0.026,-0.273 -0.007,-0.078 -0.034,-0.125 -0.092,-0.161 -0.077,-0.049 -0.159,-0.08 -0.245,-0.113 l -0.046,-0.017 c -0.053,-0.021 -0.113,-0.045 -0.17,-0.048 -0.059,-0.004 -0.119,-0.006 -0.178,-0.006 -0.26,0 -0.49,0.038 -0.702,0.115 -0.156,0.058 -0.319,0.106 -0.463,0.149 -0.063,0.018 -0.125,0.036 -0.187,0.055 -0.117,0.037 -0.239,0.065 -0.356,0.092 l -0.016,0.004 c -0.148,0.034 -0.301,0.07 -0.446,0.122 -0.194,0.069 -0.393,0.133 -0.585,0.194 l -0.064,0.021 c -0.136,0.044 -0.272,0.087 -0.408,0.133 -0.156,0.054 -0.311,0.122 -0.455,0.189 -0.073,0.033 -0.141,0.072 -0.213,0.114 l -0.086,0.049 c -0.03,0.016 -0.061,0.035 -0.09,0.055 l -0.203,0.141 c -0.175,0.121 -0.349,0.241 -0.522,0.364 -0.053,0.038 -0.104,0.078 -0.155,0.119 l -0.01,0.008 c -0.051,0.04 -0.102,0.081 -0.156,0.118 -0.205,0.144 -0.417,0.293 -0.58,0.498 -0.091,0.114 -0.146,0.211 -0.179,0.313 -0.057,0.177 -0.076,0.358 -0.089,0.527 -0.018,0.233 -0.095,0.411 -0.235,0.544 -0.125,0.117 -0.284,0.17 -0.41,0.202 l -0.055,0.014 c -0.094,0.024 -0.192,0.05 -0.284,0.082 -0.104,0.037 -0.19,0.102 -0.28,0.171 l -0.067,0.05 c -0.203,0.15 -0.345,0.354 -0.444,0.641 -0.042,0.123 -0.077,0.253 -0.108,0.367 l -0.004,0.015 c -0.022,0.081 -0.044,0.16 -0.068,0.239 -0.019,0.062 -0.041,0.122 -0.063,0.183 -0.033,0.089 -0.063,0.17 -0.083,0.256 -0.083,0.348 -0.257,0.653 -0.433,0.931 -0.138,0.216 -0.241,0.412 -0.316,0.598 -0.049,0.121 -0.084,0.25 -0.118,0.373 l -0.01,0.036 c -0.097,0.354 -0.143,0.682 -0.139,1.004 10e-4,0.051 0,0.102 0,0.154 v 0.018 c -0.001,0.09 -0.002,0.179 10e-4,0.268 l 0.002,0.059 c 0.004,0.113 0.008,0.229 0.034,0.338 0.043,0.182 0.065,0.369 0.086,0.55 0.009,0.084 0.019,0.165 0.03,0.246 0.013,0.096 0.015,0.192 0.016,0.285 10e-4,0.099 0.004,0.188 0.015,0.276 l 0.007,0.051 c 0.027,0.211 0.054,0.411 0.12,0.611 0.034,0.105 0.058,0.214 0.082,0.321 l 0.019,0.082 c 0.029,0.129 0.059,0.263 0.081,0.396 0.027,0.16 0.081,0.307 0.138,0.463 0.045,0.121 0.089,0.24 0.118,0.361 0.026,0.103 0.067,0.204 0.126,0.309 0.041,0.073 0.074,0.152 0.104,0.222 0.044,0.103 0.085,0.201 0.148,0.292 0.039,0.056 0.076,0.114 0.113,0.171 l 0.049,-0.015 -0.042,0.026 C -0.204,-0.263 -0.115,-0.125 0,0"
           style="fill:none;fill-opacity:1;fill-rule:nonzero;stroke:#000eff;stroke-width:0.197956;stroke-dasharray:none;stroke-opacity:1"
           id="path77157" />
      </g>
      <g
         id="g77159"
         transform="translate(73.3054,24.7143)"
         style="fill:none;fill-opacity:1;stroke:#000eff;stroke-width:0.197956;stroke-dasharray:none;stroke-opacity:1">
        <path
           d="M 0,0 V -0.014 C -0.001,-0.052 -0.002,-0.09 -0.001,-0.129 0.001,-0.304 0.029,-0.46 0.084,-0.607 L 0.159,-0.811 C 0.174,-0.854 0.19,-0.897 0.206,-0.94 0.24,-1.037 0.276,-1.136 0.318,-1.231 0.338,-1.278 0.361,-1.324 0.383,-1.37 0.435,-1.477 0.482,-1.575 0.513,-1.683 0.534,-1.755 0.564,-1.824 0.593,-1.891 0.613,-1.936 0.63,-1.976 0.646,-2.016 0.715,-2.196 0.794,-2.4 0.82,-2.617 0.832,-2.722 0.856,-2.826 0.878,-2.926 L 0.911,-3.073 C 0.981,-3.4 1.054,-3.737 1.039,-4.079 1.032,-4.222 0.999,-4.339 0.937,-4.436 0.895,-4.503 0.846,-4.564 0.799,-4.624 0.77,-4.659 0.741,-4.696 0.714,-4.732 0.668,-4.794 0.625,-4.852 0.592,-4.916 0.538,-5.018 0.556,-5.096 0.65,-5.163 0.736,-5.224 0.833,-5.26 0.926,-5.295 l 0.022,-0.008 c 0.054,-0.02 0.109,-0.031 0.162,-0.031 0.138,0 0.256,0.069 0.353,0.137 0.02,0.013 0.067,0.051 0.079,0.097 0.006,0.024 0.013,0.047 0.02,0.071 l 0.005,0.016 c 0.022,0.069 0.046,0.148 0.047,0.235 0,0.069 0,0.138 -0.001,0.208 -0.002,0.181 -0.004,0.367 0.022,0.554 0.031,0.226 0.031,0.462 -0.002,0.681 -0.011,0.08 -0.016,0.159 -0.02,0.236 -0.005,0.09 -0.01,0.182 -0.026,0.274 l -0.011,0.067 c -0.023,0.13 -0.045,0.263 -0.093,0.388 -0.067,0.177 -0.144,0.378 -0.204,0.582 -0.027,0.093 -0.068,0.185 -0.107,0.273 l -0.039,0.087 c -0.069,0.162 -0.141,0.323 -0.212,0.484 -0.081,0.181 -0.135,0.373 -0.16,0.57 -0.004,0.029 -0.005,0.056 -0.006,0.084 -0.001,0.061 -0.002,0.113 -0.016,0.167 -0.013,0.051 -0.001,0.112 0.009,0.171 0.005,0.027 0.01,0.054 0.014,0.091 0.003,0.032 0.005,0.056 0.011,0.079 0.034,0.142 0.089,0.274 0.168,0.404 0.18,0.296 0.397,0.512 0.664,0.661 0.203,0.114 0.43,0.183 0.694,0.211 0.232,0.025 0.475,0.005 0.75,-0.06 C 3.08,1.427 3.11,1.416 3.14,1.406 3.174,1.393 3.207,1.382 3.24,1.374 3.48,1.318 3.655,1.221 3.79,1.071 3.825,1.031 3.863,0.995 3.901,0.958 3.946,0.917 3.975,0.869 4,0.796 4.063,0.615 4.093,0.433 4.093,0.241 L 4.092,0.159 C 4.091,0.015 4.089,-0.148 4.116,-0.308 4.153,-0.531 4.118,-0.769 4.085,-0.999 4.053,-1.218 3.945,-1.42 3.746,-1.635 3.566,-1.831 3.318,-1.946 2.99,-1.986 2.815,-2.007 2.679,-2.096 2.585,-2.252 2.473,-2.437 2.479,-2.645 2.602,-2.837 2.657,-2.922 2.69,-3.015 2.702,-3.115 2.72,-3.269 2.707,-3.432 2.663,-3.6 2.59,-3.876 2.59,-4.151 2.66,-4.441 L 2.667,-4.469 C 2.698,-4.598 2.731,-4.731 2.733,-4.86 l 10e-4,-0.1 C 2.738,-5.148 2.742,-5.339 2.711,-5.528 2.667,-5.803 2.559,-6.014 2.372,-6.191 2.332,-6.229 2.301,-6.245 2.267,-6.245 2.243,-6.245 2.225,-6.237 2.21,-6.229 2.027,-6.15 1.846,-6.11 1.66,-6.072 1.602,-6.06 1.545,-6.054 1.49,-6.054 1.33,-6.054 1.179,-6.104 1.027,-6.207 0.986,-6.235 0.947,-6.265 0.907,-6.296 0.868,-6.327 0.83,-6.356 0.791,-6.383 0.601,-6.511 0.449,-6.686 0.314,-6.84 0.197,-6.975 0.094,-7.079 -0.036,-7.159 -0.175,-7.244 -0.297,-7.327 -0.41,-7.411 c -0.059,-0.043 -0.104,-0.106 -0.137,-0.157 -0.105,-0.16 -0.092,-0.348 -0.081,-0.499 0.009,-0.129 0.163,-0.261 0.287,-0.251 0.227,0.027 0.394,0.123 0.499,0.286 0.025,0.039 0.047,0.081 0.069,0.122 0.023,0.042 0.041,0.075 0.061,0.108 l 0.038,0.061 c 0.051,0.083 0.103,0.169 0.166,0.245 0.18,0.215 0.412,0.389 0.711,0.532 0.121,0.058 0.243,0.113 0.366,0.167 0.071,0.031 0.142,0.063 0.213,0.095 0.156,0.071 0.312,0.141 0.465,0.216 0.047,0.024 0.08,0.025 0.13,0.005 0.038,-0.015 0.078,-0.029 0.118,-0.042 0.068,-0.023 0.128,-0.042 0.184,-0.069 0.037,-0.018 0.073,-0.027 0.107,-0.027 0.08,0 0.139,0.048 0.186,0.094 0.109,0.107 0.248,0.255 0.355,0.44 0.073,0.127 0.118,0.261 0.136,0.401 0.024,0.189 0.003,0.383 -0.064,0.579 -0.057,0.168 -0.107,0.349 -0.087,0.537 0.006,0.051 0.009,0.102 0.013,0.153 0.006,0.094 0.011,0.171 0.023,0.247 0.021,0.135 -0.004,0.26 -0.027,0.371 -0.038,0.185 -0.089,0.368 -0.139,0.539 -0.04,0.136 0.008,0.261 0.059,0.365 0.133,0.268 0.38,0.437 0.601,0.574 0.04,0.025 0.082,0.048 0.123,0.072 l 0.033,0.019 c 0.102,0.058 0.204,0.115 0.295,0.185 0.022,0.016 0.044,0.033 0.066,0.048 0.088,0.063 0.188,0.134 0.243,0.248 0.022,0.045 0.053,0.086 0.087,0.116 0.073,0.063 0.099,0.149 0.119,0.231 0.023,0.091 0.036,0.192 0.043,0.326 0.004,0.092 0.003,0.186 0.002,0.277 l -10e-4,0.096 h 0.013 l -0.014,0.26 C 4.838,-0.231 4.828,-0.043 4.822,0.149 4.819,0.278 4.802,0.4 4.768,0.521 4.752,0.579 4.735,0.636 4.717,0.693 4.684,0.798 4.656,0.887 4.637,0.98 4.58,1.259 4.448,1.469 4.235,1.621 4.213,1.637 4.191,1.653 4.169,1.67 4.091,1.731 4.012,1.791 3.912,1.818 3.808,1.846 3.705,1.881 3.615,1.911 3.386,1.987 3.151,2.065 2.901,2.072 L 2.886,2.076 C 2.807,2.105 2.724,2.107 2.653,2.107 H 2.583 C 2.519,2.107 2.451,2.109 2.387,2.128 2.342,2.141 2.269,2.143 2.188,2.138 2.146,2.135 2.107,2.132 2.069,2.135 1.883,2.146 1.696,2.106 1.54,2.068 1.474,2.052 1.411,2.023 1.363,1.987 1.148,1.828 0.924,1.654 0.729,1.453 L 0.717,1.441 C 0.673,1.395 0.631,1.352 0.583,1.316 0.442,1.211 0.32,1.086 0.219,0.943 0.052,0.704 -0.021,0.467 -0.003,0.216 0.003,0.145 0.001,0.074 0,0"
           style="fill:none;fill-opacity:1;fill-rule:nonzero;stroke:#000eff;stroke-width:0.197956;stroke-dasharray:none;stroke-opacity:1"
           id="path77161" />
      </g>
      <g
         id="g77163"
         transform="translate(73.2559,24.7153)"
         style="fill:none;fill-opacity:1;stroke:#000eff;stroke-width:0.197956;stroke-dasharray:none;stroke-opacity:1">
        <path
           d="M 0,0 Z"
           style="fill:none;fill-opacity:1;fill-rule:nonzero;stroke:#000eff;stroke-width:0.197956;stroke-dasharray:none;stroke-opacity:1"
           id="path77165" />
      </g>
      <g
         id="g77167"
         transform="translate(84.986,25.8354)"
         style="fill:none;fill-opacity:1;stroke:#000eff;stroke-width:0.197956;stroke-dasharray:none;stroke-opacity:1">
        <path
           d="M 0,0 V 0.044 C 0.004,0.35 0.007,0.667 -0.025,0.981 L -0.029,1.019 C -0.049,1.218 -0.07,1.424 -0.137,1.624 -0.163,1.699 -0.183,1.779 -0.2,1.85 l -0.022,0.086 c -0.011,0.044 -0.022,0.089 -0.032,0.133 -0.031,0.135 -0.063,0.274 -0.125,0.403 -0.013,0.025 -0.025,0.049 -0.038,0.074 -0.03,0.057 -0.057,0.108 -0.074,0.162 -0.061,0.197 -0.166,0.374 -0.266,0.545 l -0.011,0.019 c -0.023,0.039 -0.046,0.077 -0.067,0.116 -0.127,0.221 -0.272,0.43 -0.426,0.65 -0.068,0.099 -0.085,0.214 -0.101,0.325 -0.004,0.033 -0.01,0.068 -0.016,0.101 l -0.002,0.014 0.004,0.013 c 0.033,0.085 0.029,0.172 0.025,0.257 C -1.353,4.792 -1.355,4.829 -1.353,4.867 -1.347,4.99 -1.391,5.1 -1.434,5.191 -1.457,5.239 -1.492,5.267 -1.532,5.299 -1.652,5.395 -1.794,5.432 -1.93,5.468 L -1.968,5.477 C -2.094,5.511 -2.144,5.464 -2.145,5.337 L -2.146,5.232 C -2.147,5.002 -2.149,4.774 -2.143,4.549 -2.141,4.481 -2.116,4.403 -2.076,4.335 -1.95,4.125 -1.87,3.901 -1.83,3.649 -1.79,3.401 -1.692,3.174 -1.539,2.976 L -1.45,2.862 C -1.407,2.806 -1.363,2.75 -1.32,2.694 l 0.034,-0.045 c 0.047,-0.061 0.095,-0.124 0.137,-0.191 0.049,-0.082 0.094,-0.169 0.131,-0.261 0.055,-0.13 0.103,-0.264 0.15,-0.393 l 0.014,-0.04 c 0.057,-0.154 0.073,-0.313 0.089,-0.48 0.008,-0.085 0.017,-0.175 0.031,-0.261 0.015,-0.096 0.017,-0.192 0.019,-0.294 0.002,-0.091 0.003,-0.178 0.013,-0.265 0.014,-0.121 0.014,-0.24 0.014,-0.366 0,-0.125 0,-0.255 0.015,-0.383 0.025,-0.203 0.028,-0.407 0.032,-0.644 l 0.001,-0.03 c 0.001,-0.1 0.003,-0.205 0.007,-0.312 L -0.667,-1.746 C -0.668,-1.753 -0.67,-1.761 -0.672,-1.77 -0.677,-1.788 -0.679,-1.795 -0.681,-1.803 L -0.708,-1.946 C -0.725,-2.039 -0.744,-2.133 -0.759,-2.228 -0.767,-2.271 -0.773,-2.315 -0.779,-2.36 -0.787,-2.419 -0.793,-2.469 -0.803,-2.518 -0.844,-2.73 -0.925,-2.934 -1.005,-3.131 l -0.014,-0.037 c -0.02,-0.049 -0.04,-0.099 -0.058,-0.149 -0.042,-0.109 -0.091,-0.218 -0.139,-0.324 -0.027,-0.057 -0.053,-0.115 -0.078,-0.172 l -0.091,-0.214 c -0.036,-0.086 -0.069,-0.164 -0.103,-0.242 -0.043,-0.1 -0.088,-0.198 -0.134,-0.296 -0.05,-0.105 -0.114,-0.201 -0.193,-0.292 -0.063,-0.071 -0.116,-0.153 -0.167,-0.232 l -0.04,-0.061 c -0.018,-0.029 -0.024,-0.064 -0.028,-0.099 -0.004,-0.034 -0.007,-0.069 -0.01,-0.103 -0.006,-0.077 -0.011,-0.14 -0.024,-0.203 -0.033,-0.153 -0.078,-0.311 -0.178,-0.43 -0.135,-0.159 -0.285,-0.321 -0.497,-0.399 l -0.02,-0.007 c -0.098,-0.037 -0.187,-0.07 -0.283,-0.051 -0.082,0.016 -0.159,0.044 -0.241,0.073 l -0.1,0.036 c -0.103,0.038 -0.209,0.078 -0.332,0.078 -0.116,0 -0.217,-0.044 -0.284,-0.122 -0.064,-0.075 -0.091,-0.176 -0.074,-0.278 l 0.008,-0.055 c 0.011,-0.077 0.022,-0.162 0.067,-0.236 0.021,-0.034 0.035,-0.072 0.05,-0.112 0.007,-0.02 0.014,-0.038 0.021,-0.056 0.057,-0.138 0.058,-0.269 0.003,-0.389 -0.039,-0.087 -0.09,-0.168 -0.14,-0.246 L -4.097,-7.771 C -4.11,-7.792 -4.124,-7.814 -4.137,-7.835 -4.176,-7.899 -4.23,-7.945 -4.289,-7.994 -4.328,-8.027 -4.365,-8.058 -4.397,-8.093 -4.422,-8.12 -4.452,-8.142 -4.485,-8.165 l -0.042,-0.031 c -0.136,-0.103 -0.287,-0.197 -0.42,-0.279 -0.132,-0.082 -0.282,-0.175 -0.419,-0.279 -0.184,-0.14 -0.386,-0.255 -0.576,-0.359 l -0.018,-0.01 c -0.146,-0.078 -0.31,-0.168 -0.475,-0.246 -0.029,-0.013 -0.059,-0.022 -0.09,-0.032 -0.048,-0.014 -0.091,-0.026 -0.129,-0.047 -0.147,-0.083 -0.3,-0.139 -0.463,-0.198 -0.13,-0.047 -0.274,-0.1 -0.408,-0.167 -0.107,-0.055 -0.223,-0.09 -0.335,-0.123 -0.139,-0.043 -0.273,-0.084 -0.394,-0.153 l -0.013,-0.006 -0.03,-0.007 c -0.202,-0.081 -0.418,-0.111 -0.646,-0.143 -0.087,-0.012 -0.168,-0.024 -0.248,-0.038 -0.192,-0.032 -0.374,-0.08 -0.555,-0.146 -0.062,-0.022 -0.098,-0.051 -0.109,-0.087 -0.016,-0.053 0.024,-0.106 0.04,-0.127 0.109,-0.144 0.238,-0.247 0.384,-0.305 0.077,-0.03 0.162,-0.045 0.258,-0.045 0.091,0 0.18,0.013 0.248,0.025 0.146,0.025 0.281,0.089 0.382,0.143 0.132,0.068 0.273,0.101 0.405,0.126 0.155,0.028 0.285,0.059 0.408,0.096 0.09,0.027 0.179,0.058 0.268,0.09 0.09,0.032 0.174,0.061 0.258,0.088 0.18,0.055 0.348,0.138 0.512,0.219 0.097,0.048 0.205,0.102 0.313,0.147 0.034,0.014 0.068,0.03 0.101,0.045 l 0.022,0.01 c 0.081,0.038 0.153,0.071 0.231,0.095 0.094,0.028 0.194,0.07 0.304,0.13 0.058,0.032 0.117,0.063 0.176,0.093 0.156,0.081 0.315,0.163 0.462,0.268 l 0.106,0.074 c 0.157,0.11 0.319,0.225 0.471,0.344 0.161,0.124 0.339,0.23 0.496,0.323 l 0.056,0.033 c 0.042,0.025 0.084,0.05 0.126,0.076 0.126,0.078 0.226,0.151 0.316,0.23 0.176,0.155 0.19,0.349 0.206,0.554 l 0.002,0.036 -0.002,0.006 c -0.041,0.091 -0.024,0.183 -0.006,0.28 l 0.005,0.024 c 0.038,0.197 0.109,0.274 0.305,0.327 0.095,0.027 0.191,0.029 0.289,0.029 l 0.022,-0.001 0.054,0.001 c 0.228,0.002 0.426,0.084 0.589,0.245 0.192,0.19 0.292,0.437 0.371,0.654 0.095,0.262 0.213,0.512 0.316,0.722 0.077,0.156 0.17,0.309 0.261,0.456 0.062,0.102 0.124,0.203 0.182,0.307 0.105,0.189 0.202,0.388 0.287,0.564 l 0.03,0.061 c 0.033,0.069 0.055,0.136 0.064,0.198 0.025,0.177 0.079,0.353 0.128,0.504 l 0.028,0.083 c 0.012,0.036 0.025,0.071 0.036,0.107 0.019,0.062 0.037,0.125 0.055,0.187 l 0.005,0.016 c 0.041,0.143 0.083,0.29 0.141,0.428 0.092,0.216 0.137,0.454 0.143,0.749 0.008,0.47 0.008,0.936 0.001,1.385 -0.003,0.139 -0.001,0.278 0,0.416"
           style="fill:none;fill-opacity:1;fill-rule:nonzero;stroke:#000eff;stroke-width:0.197956;stroke-dasharray:none;stroke-opacity:1"
           id="path77169" />
      </g>
      <g
         id="g77171"
         transform="translate(82.8255,31.8654)"
         style="fill:none;fill-opacity:1;stroke:#000eff;stroke-width:0.197956;stroke-dasharray:none;stroke-opacity:1">
        <path
           d="M 0,0 C -0.004,0.019 -0.007,0.036 -0.01,0.052 -0.031,0.173 -0.059,0.299 -0.162,0.385 -0.341,0.536 -0.568,0.571 -0.816,0.486 -0.961,0.436 -1.114,0.379 -1.239,0.277 -1.351,0.186 -1.487,0.163 -1.617,0.148 -1.79,0.128 -2.015,0.09 -2.232,-0.023 c -0.173,-0.09 -0.289,-0.208 -0.354,-0.359 -0.042,-0.1 -0.08,-0.203 -0.12,-0.316 l -0.017,-0.047 c -0.078,-0.218 -0.297,-0.365 -0.519,-0.336 -0.038,0.004 -0.077,0.014 -0.115,0.024 -0.04,0.01 -0.074,0.019 -0.109,0.025 -0.025,0.004 -0.049,0.009 -0.073,0.014 -0.077,0.015 -0.161,0.032 -0.24,0.022 -0.217,-0.03 -0.409,-0.151 -0.555,-0.35 -0.06,-0.083 -0.137,-0.147 -0.211,-0.208 -0.058,-0.048 -0.117,-0.097 -0.168,-0.155 -0.018,-0.014 -0.032,-0.02 -0.06,-0.029 l -0.14,-0.048 c -0.086,-0.028 -0.171,-0.057 -0.256,-0.089 -0.112,-0.043 -0.244,-0.049 -0.37,-0.017 -0.188,0.048 -0.381,0.115 -0.525,0.283 -0.119,0.139 -0.196,0.297 -0.243,0.497 -0.026,0.109 -0.027,0.215 -0.028,0.328 0,0.052 0,0.093 -0.002,0.133 -0.002,0.058 -0.012,0.116 -0.028,0.173 -0.022,0.081 -0.047,0.16 -0.071,0.24 l -0.008,0.025 c -0.017,0.055 -0.033,0.11 -0.049,0.165 -0.019,0.066 -0.037,0.132 -0.056,0.198 -0.033,0.123 -0.065,0.239 -0.102,0.352 -0.021,0.063 -0.048,0.125 -0.074,0.185 -0.032,0.072 -0.06,0.135 -0.08,0.202 -0.067,0.224 -0.224,0.39 -0.367,0.528 -0.103,0.101 -0.239,0.191 -0.393,0.261 -0.352,0.16 -0.648,0.286 -0.987,0.327 -0.04,0.005 -0.079,0.011 -0.119,0.016 L -8.69,2.024 c -0.15,0.019 -0.304,0.04 -0.466,0.04 l -0.328,0.002 c -0.064,0 -0.128,-10e-4 -0.192,-0.003 -0.183,-0.005 -0.362,-0.016 -0.53,-0.032 -0.109,-0.01 -0.192,-0.029 -0.262,-0.058 -0.19,-0.08 -0.342,-0.153 -0.477,-0.23 -0.103,-0.059 -0.202,-0.127 -0.298,-0.193 -0.056,-0.038 -0.112,-0.077 -0.169,-0.113 -0.268,-0.173 -0.495,-0.233 -0.739,-0.195 -0.132,0.021 -0.242,0.041 -0.352,0.087 -0.05,0.022 -0.149,0.058 -0.253,0.058 -0.044,0 -0.085,-0.007 -0.12,-0.02 -0.046,-0.017 -0.102,-0.042 -0.127,-0.085 -0.04,-0.069 -0.091,-0.176 -0.073,-0.297 0.034,-0.226 0.168,-0.392 0.388,-0.479 0.084,-0.034 0.184,-0.051 0.297,-0.051 0.201,0.002 0.404,0.017 0.601,0.031 0.068,0.005 0.13,0.021 0.18,0.046 l 0.073,0.036 c 0.159,0.079 0.34,0.169 0.506,0.27 0.122,0.075 0.241,0.148 0.354,0.225 0.312,0.212 0.668,0.254 0.975,0.268 0.106,0.005 0.214,0.008 0.321,0.008 0.208,0 0.393,-0.012 0.565,-0.036 0.066,-0.008 0.132,-0.014 0.199,-0.019 0.062,-0.005 0.125,-0.009 0.188,-0.018 0.037,-0.004 0.073,-0.015 0.108,-0.025 0.034,-0.009 0.059,-0.016 0.084,-0.022 0.167,-0.034 0.304,-0.122 0.45,-0.215 l 0.014,-0.009 c 0.195,-0.124 0.332,-0.302 0.41,-0.529 0.024,-0.073 0.05,-0.146 0.076,-0.218 L -7.245,0.13 c 0.011,-0.031 0.022,-0.062 0.034,-0.092 l 0.012,-0.034 c 0.038,-0.101 0.074,-0.198 0.1,-0.296 0.031,-0.12 0.057,-0.244 0.082,-0.364 0.016,-0.079 0.031,-0.151 0.048,-0.223 0.014,-0.064 0.031,-0.128 0.047,-0.192 0.03,-0.113 0.055,-0.213 0.074,-0.316 0.048,-0.266 0.1,-0.504 0.25,-0.719 0.146,-0.209 0.32,-0.34 0.532,-0.399 0.107,-0.031 0.217,-0.036 0.323,-0.042 0.071,-0.003 0.144,-0.007 0.218,-0.019 0.054,-0.009 0.126,-0.008 0.199,-0.005 0.061,0.003 0.122,0.002 0.184,0.001 l 0.096,-0.001 c 0.042,0 0.083,0.001 0.124,0.004 0.11,0.007 0.253,0.025 0.382,0.099 0.136,0.079 0.237,0.195 0.309,0.287 0.155,0.2 0.331,0.337 0.537,0.42 0.143,0.058 0.264,0.07 0.373,0.039 0.128,-0.036 0.224,-0.092 0.295,-0.17 0.086,-0.094 0.2,-0.139 0.36,-0.142 0.074,0 0.136,0.026 0.194,0.082 0.082,0.08 0.133,0.306 0.112,0.422 -0.038,0.217 -0.002,0.379 0.113,0.508 0.072,0.081 0.162,0.162 0.272,0.248 0.05,0.039 0.104,0.074 0.157,0.109 0.079,0.053 0.155,0.103 0.221,0.162 0.097,0.085 0.21,0.136 0.33,0.19 0.098,0.043 0.219,0.058 0.338,0.039 0.091,-0.014 0.183,-0.036 0.265,-0.056 0.036,-0.009 0.073,-0.018 0.11,-0.026 l 0.109,-0.026 c 0.106,-0.025 0.202,-0.048 0.299,-0.065 l 0.017,-0.001 c 0.029,0 0.1,0.025 0.111,0.063 0.019,0.077 0.03,0.164 0.034,0.265 C 0.017,-0.079 0.009,-0.041 0,0"
           style="fill:none;fill-opacity:1;fill-rule:nonzero;stroke:#000eff;stroke-width:0.197956;stroke-dasharray:none;stroke-opacity:1"
           id="path77173" />
      </g>
      <g
         id="g77175"
         transform="translate(65.7476,23.85)"
         style="fill:none;fill-opacity:1;stroke:#000eff;stroke-width:0.197956;stroke-dasharray:none;stroke-opacity:1">
        <path
           d="m 0,0 c 0.097,-0.177 0.196,-0.354 0.323,-0.504 0.216,-0.254 0.369,-0.506 0.468,-0.771 0.01,-0.025 0.02,-0.05 0.031,-0.074 0.018,-0.04 0.034,-0.074 0.043,-0.11 0.038,-0.139 0.081,-0.301 0.112,-0.463 0.012,-0.06 0.019,-0.122 0.026,-0.183 0.011,-0.088 0.021,-0.177 0.044,-0.26 0.072,-0.261 0.207,-0.468 0.402,-0.614 0.2,-0.15 0.421,-0.289 0.657,-0.413 0.291,-0.153 0.5,-0.342 0.639,-0.577 0.156,-0.267 0.324,-0.551 0.501,-0.822 0.119,-0.181 0.199,-0.394 0.246,-0.652 0.023,-0.129 0.067,-0.249 0.136,-0.368 0.06,-0.106 0.148,-0.184 0.253,-0.225 0.127,-0.05 0.263,-0.051 0.427,0 C 4.425,-6 4.491,-5.94 4.504,-5.86 4.532,-5.691 4.5,-5.545 4.41,-5.426 4.383,-5.392 4.356,-5.358 4.328,-5.324 4.271,-5.254 4.225,-5.196 4.183,-5.133 l -0.02,0.03 c -0.07,0.104 -0.142,0.212 -0.184,0.327 -0.054,0.144 -0.105,0.291 -0.155,0.437 l -0.04,0.115 C 3.704,-3.991 3.575,-3.792 3.402,-3.633 3.317,-3.555 3.227,-3.48 3.14,-3.406 L 2.979,-3.272 C 2.915,-3.217 2.85,-3.162 2.784,-3.109 2.745,-3.076 2.706,-3.044 2.667,-3.011 L 2.653,-2.999 C 2.559,-2.92 2.461,-2.839 2.36,-2.766 2.2,-2.652 2.067,-2.517 1.926,-2.374 L 1.89,-2.338 C 1.886,-2.334 1.88,-2.327 1.868,-2.303 L 1.861,-2.29 c -0.14,0.26 -0.234,0.532 -0.279,0.806 L 1.571,-1.413 C 1.557,-1.322 1.54,-1.218 1.516,-1.118 L 1.51,-1.092 C 1.486,-0.991 1.462,-0.89 1.413,-0.805 1.279,-0.573 1.14,-0.377 0.988,-0.207 0.906,-0.115 0.84,-0.009 0.787,0.081 0.638,0.334 0.598,0.614 0.579,0.855 0.563,1.047 0.597,1.244 0.63,1.434 l 0.014,0.077 c 0.012,0.069 0.022,0.127 0.025,0.187 0.007,0.18 0.057,0.349 0.112,0.521 0.012,0.04 0.028,0.079 0.044,0.117 0.024,0.058 0.048,0.116 0.061,0.175 0.049,0.22 0.106,0.469 0.099,0.726 L 0.983,3.275 0.974,3.297 0.987,3.318 c 0.029,0.054 0.029,0.108 0.028,0.16 0,0.021 0,0.043 0.002,0.064 C 1.02,3.569 1.024,3.597 1.028,3.624 1.037,3.678 1.045,3.726 1.046,3.773 1.049,3.895 1.078,4.01 1.109,4.116 1.176,4.347 1.244,4.535 1.362,4.704 1.48,4.873 1.532,5.065 1.521,5.292 1.518,5.377 1.495,5.458 1.453,5.539 1.41,5.622 1.328,5.674 1.238,5.674 1.212,5.674 1.186,5.669 1.162,5.661 1.095,5.639 1.027,5.613 0.97,5.564 0.887,5.492 0.793,5.411 0.736,5.313 0.679,5.214 0.656,5.091 0.635,4.983 0.572,4.652 0.488,4.315 0.376,3.953 L 0.367,3.924 C 0.321,3.775 0.274,3.62 0.247,3.457 0.225,3.319 0.215,3.178 0.205,3.042 L 0.198,2.933 C 0.18,2.708 0.157,2.469 0.072,2.241 -0.04,1.937 -0.094,1.606 -0.092,1.228 c 0.001,-0.069 0.001,-0.139 0,-0.209 L -0.093,0.768 C -0.094,0.662 -0.096,0.543 -0.089,0.414 -0.082,0.282 -0.074,0.134 0,0"
           style="fill:none;fill-opacity:1;fill-rule:nonzero;stroke:#000eff;stroke-width:0.197956;stroke-dasharray:none;stroke-opacity:1"
           id="path77177" />
      </g>
      <g
         id="g77179"
         transform="translate(81.0273,28.7226)"
         style="fill:none;fill-opacity:1;stroke:#000eff;stroke-width:0.197956;stroke-dasharray:none;stroke-opacity:1">
        <path
           d="m 0,0 c -0.073,-0.122 -0.095,-0.229 -0.068,-0.329 0.055,-0.199 0.179,-0.354 0.357,-0.449 0.092,-0.048 0.185,-0.095 0.278,-0.141 L 0.585,-0.927 C 0.694,-0.981 0.804,-1.035 0.912,-1.093 1.133,-1.212 1.28,-1.414 1.395,-1.595 1.518,-1.789 1.538,-2.024 1.555,-2.231 L 1.558,-2.254 C 1.58,-2.512 1.584,-2.775 1.589,-3.03 L 1.592,-3.19 C 1.594,-3.302 1.594,-3.413 1.593,-3.525 1.592,-3.644 1.592,-3.763 1.595,-3.882 1.597,-3.996 1.6,-4.125 1.637,-4.242 1.682,-4.385 1.69,-4.527 1.688,-4.697 L 1.687,-4.868 C 1.684,-5.076 1.595,-5.265 1.425,-5.428 1.325,-5.523 1.199,-5.592 1.072,-5.622 L 1.043,-5.63 C 1.004,-5.639 0.972,-5.647 0.94,-5.651 0.742,-5.674 0.567,-5.615 0.371,-5.456 c -0.1,0.08 -0.197,0.119 -0.297,0.119 -0.052,0 -0.106,-0.011 -0.16,-0.033 -0.056,-0.022 -0.114,-0.043 -0.174,-0.06 -0.109,-0.033 -0.206,-0.097 -0.304,-0.203 -0.067,-0.072 -0.065,-0.134 0.008,-0.208 0.021,-0.022 0.046,-0.043 0.075,-0.063 0.247,-0.172 0.539,-0.262 0.948,-0.29 0.119,-0.008 0.237,-0.023 0.35,-0.044 l 0.09,-0.018 c 0.114,-0.022 0.231,-0.046 0.349,-0.046 0.058,0 0.11,0.006 0.175,0.019 0.11,0.023 0.233,0.048 0.327,0.123 0.138,0.11 0.235,0.237 0.289,0.379 0.107,0.279 0.213,0.578 0.243,0.898 0.022,0.238 0.028,0.471 0.032,0.672 0.003,0.136 -0.006,0.274 -0.013,0.407 L 2.305,-3.742 C 2.303,-3.701 2.3,-3.659 2.298,-3.618 2.29,-3.441 2.289,-3.259 2.289,-3.084 v 0.03 C 2.288,-2.778 2.288,-2.491 2.26,-2.208 2.255,-2.154 2.242,-2.1 2.231,-2.054 L 2.197,-1.903 C 2.155,-1.722 2.114,-1.542 2.069,-1.362 2.008,-1.122 1.899,-0.93 1.744,-0.792 1.613,-0.674 1.463,-0.584 1.299,-0.525 1.014,-0.42 0.825,-0.244 0.722,0.013 0.679,0.121 0.67,0.235 0.696,0.351 0.737,0.533 0.851,0.697 1.045,0.852 1.189,0.967 1.289,1.091 1.349,1.232 1.445,1.458 1.33,1.546 1.205,1.604 1.076,1.663 0.927,1.674 0.746,1.639 0.654,1.621 0.481,1.588 0.411,1.422 L 0.401,1.407 0.385,1.389 C 0.302,1.275 0.225,1.154 0.239,0.995 0.239,0.986 0.239,0.978 0.232,0.95 0.229,0.935 0.225,0.921 0.224,0.908 0.222,0.868 0.222,0.829 0.223,0.79 0.223,0.776 0.225,0.766 0.226,0.756 0.228,0.746 0.229,0.739 0.229,0.733 0.228,0.714 0.226,0.698 0.224,0.682 L 0.221,0.66 C 0.215,0.614 0.208,0.571 0.21,0.527 0.213,0.431 0.192,0.342 0.146,0.255 0.103,0.172 0.055,0.091 0.007,0.012 Z"
           style="fill:none;fill-opacity:1;fill-rule:nonzero;stroke:#000eff;stroke-width:0.197956;stroke-dasharray:none;stroke-opacity:1"
           id="path77181" />
      </g>
      <g
         id="g77183"
         transform="translate(77.4834,17.1333)"
         style="fill:none;fill-opacity:1;stroke:#000eff;stroke-width:0.197956;stroke-dasharray:none;stroke-opacity:1">
        <path
           d="M 0,0 C 0.154,-0.078 0.3,-0.074 0.424,0.011 0.558,0.103 0.676,0.225 0.796,0.395 0.886,0.521 1,0.658 1.166,0.725 l 0.126,0.05 C 1.419,0.828 1.551,0.882 1.685,0.918 1.872,0.97 2.03,1.067 2.165,1.215 2.269,1.327 2.312,1.457 2.341,1.569 2.35,1.606 2.358,1.644 2.366,1.682 2.381,1.754 2.393,1.811 2.412,1.867 2.484,2.087 2.568,2.349 2.637,2.623 2.695,2.851 2.782,3.083 2.896,3.313 2.975,3.47 3.091,3.587 3.241,3.661 3.404,3.742 3.603,3.76 3.821,3.714 3.948,3.687 4.071,3.633 4.206,3.571 4.344,3.506 4.485,3.474 4.649,3.47 L 4.728,3.481 C 4.803,3.49 4.877,3.5 4.949,3.516 5.019,3.531 5.072,3.579 5.099,3.651 L 5.107,3.673 C 5.126,3.721 5.145,3.77 5.118,3.842 5.04,4.044 4.893,4.184 4.669,4.27 4.501,4.334 4.327,4.352 4.158,4.369 4.088,4.376 4.019,4.383 3.95,4.393 3.897,4.401 3.846,4.412 3.794,4.423 3.685,4.448 3.583,4.47 3.475,4.463 L 3.462,4.462 3.45,4.468 C 3.415,4.485 3.372,4.493 3.323,4.493 3.267,4.493 3.202,4.483 3.125,4.461 L 3.059,4.442 C 2.913,4.408 2.774,4.31 2.631,4.144 2.552,4.053 2.483,3.951 2.415,3.853 L 2.4,3.831 C 2.362,3.776 2.325,3.72 2.284,3.667 2.112,3.436 2.044,3.168 1.995,2.914 L 1.974,2.798 C 1.94,2.617 1.904,2.431 1.861,2.25 1.82,2.082 1.765,1.949 1.693,1.843 1.565,1.654 1.387,1.508 1.246,1.403 1.14,1.323 1.059,1.278 0.967,1.248 0.736,1.172 0.475,1.086 0.226,0.986 0.106,0.938 0.009,0.861 -0.06,0.759 -0.149,0.629 -0.188,0.494 -0.184,0.336 -0.179,0.178 -0.114,0.058 0,0"
           style="fill:none;fill-opacity:1;fill-rule:nonzero;stroke:#000eff;stroke-width:0.197956;stroke-dasharray:none;stroke-opacity:1"
           id="path77185" />
      </g>
      <g
         id="g77187"
         transform="translate(78.8325,22.4034)"
         style="fill:none;fill-opacity:1;stroke:#000eff;stroke-width:0.197956;stroke-dasharray:none;stroke-opacity:1">
        <path
           d="m 0,0 c -0.013,-0.011 -0.022,-0.026 -0.031,-0.04 l -0.016,-0.024 c -0.144,-0.18 -0.302,-0.32 -0.47,-0.418 C -0.7,-0.588 -0.853,-0.7 -0.984,-0.824 -1.102,-0.935 -1.159,-1.071 -1.153,-1.23 c 0.001,-0.058 0.002,-0.116 0.003,-0.173 0.002,-0.138 0.004,-0.279 0.023,-0.421 0.031,-0.233 -0.037,-0.463 -0.102,-0.685 L -1.252,-2.59 c -0.027,-0.094 -0.037,-0.174 -0.032,-0.259 0.007,-0.105 0.044,-0.198 0.113,-0.282 0.065,-0.081 0.161,-0.089 0.246,-0.097 L -0.91,-3.23 c 0.014,-10e-4 0.028,-0.002 0.042,-0.004 0.011,-10e-4 0.022,-0.002 0.033,-0.002 0.151,0 0.326,0.135 0.376,0.288 0.056,0.175 0.042,0.356 0.03,0.53 l -0.005,0.067 c -0.005,0.068 -0.013,0.135 -0.021,0.202 -0.003,0.024 -0.008,0.05 -0.014,0.075 -0.008,0.044 -0.018,0.09 -0.014,0.133 0.012,0.137 0.028,0.284 0.066,0.423 0.053,0.197 0.155,0.366 0.294,0.487 0.126,0.11 0.273,0.205 0.4,0.284 0.165,0.102 0.304,0.255 0.412,0.453 0.024,0.043 0.046,0.087 0.068,0.13 l 0.01,0.02 C 0.814,-0.05 0.862,0.046 0.926,0.142 0.997,0.25 1.071,0.361 1.166,0.455 1.298,0.582 1.312,0.7 1.214,0.859 L 1.198,0.886 C 1.19,0.9 1.182,0.913 1.173,0.926 1.07,1.081 1.021,1.243 1.025,1.423 c 0,0.085 0,0.17 0,0.256 v 0.026 c 0,0.079 0,0.157 0,0.237 0.001,0.044 0.011,0.089 0.021,0.131 0.018,0.073 0.036,0.146 0.055,0.219 L 1.126,2.393 C 1.142,2.455 1.158,2.518 1.174,2.581 1.182,2.617 1.184,2.646 1.177,2.67 1.141,2.808 1.095,2.951 0.969,3.059 0.87,3.144 0.763,3.188 0.661,3.188 0.54,3.188 0.425,3.127 0.328,3.011 0.19,2.847 0.218,2.655 0.244,2.486 0.259,2.381 0.289,2.279 0.316,2.188 0.353,2.061 0.387,1.942 0.396,1.811 0.401,1.739 0.411,1.668 0.421,1.597 0.437,1.485 0.451,1.389 0.451,1.29 L 0.452,1.154 0.451,1.004 C 0.45,0.942 0.449,0.879 0.453,0.817 0.46,0.687 0.421,0.562 0.329,0.424 L 0.285,0.357 C 0.203,0.231 0.119,0.101 0,0"
           style="fill:none;fill-opacity:1;fill-rule:nonzero;stroke:#000eff;stroke-width:0.197956;stroke-dasharray:none;stroke-opacity:1"
           id="path77189" />
      </g>
      <g
         id="g77191"
         transform="translate(80.4164,27.1384)"
         style="fill:none;fill-opacity:1;stroke:#000eff;stroke-width:0.197956;stroke-dasharray:none;stroke-opacity:1">
        <path
           d="m 0,0 c -0.226,0 -0.447,-0.038 -0.653,-0.078 -0.155,-0.031 -0.313,-0.036 -0.505,-0.015 -0.134,0.015 -0.256,0.022 -0.376,0.022 -0.229,0 -0.416,-0.187 -0.417,-0.417 v -0.021 c 0,-0.031 0,-0.052 0,-0.073 0.004,-0.142 0.063,-0.228 0.188,-0.273 0.136,-0.049 0.284,-0.057 0.458,-0.025 0.137,0.025 0.272,0.077 0.425,0.164 0.11,0.063 0.24,0.097 0.367,0.097 0.017,0 0.034,-0.001 0.051,-0.002 0.211,-0.017 0.378,-0.06 0.525,-0.135 0.228,-0.116 0.355,-0.254 0.412,-0.449 0.042,-0.142 0.078,-0.271 0.089,-0.4 0.021,-0.26 0.009,-0.542 -0.036,-0.836 -0.021,-0.135 -0.027,-0.273 -0.019,-0.408 0.006,-0.095 0.035,-0.199 0.09,-0.318 0.071,-0.154 0.169,-0.178 0.221,-0.178 0.068,0 0.14,0.035 0.213,0.103 0.166,0.153 0.252,0.353 0.263,0.612 0.005,0.113 -0.01,0.228 -0.024,0.329 -0.021,0.154 -0.026,0.313 -0.032,0.467 -0.002,0.071 -0.005,0.145 -0.01,0.23 -0.003,0.019 -0.003,0.048 -0.002,0.08 0.001,0.064 0.003,0.134 -0.017,0.205 -0.023,0.084 -0.049,0.167 -0.075,0.249 L 1.124,-1.033 C 1.105,-0.971 1.085,-0.909 1.066,-0.847 1.01,-0.66 0.929,-0.5 0.819,-0.357 L 0.81,-0.344 C 0.734,-0.247 0.65,-0.137 0.525,-0.088 0.425,-0.049 0.312,-0.022 0.189,-0.009 0.129,-0.003 0.065,0 0,0"
           style="fill:none;fill-opacity:1;fill-rule:nonzero;stroke:#000eff;stroke-width:0.197956;stroke-dasharray:none;stroke-opacity:1"
           id="path77193" />
      </g>
      <g
         id="g77195"
         transform="translate(77.8569,34.6133)"
         style="fill:none;fill-opacity:1;stroke:#000eff;stroke-width:0.197956;stroke-dasharray:none;stroke-opacity:1">
        <path
           d="M 0,0 C 0.105,-0.048 0.232,-0.101 0.372,-0.124 0.519,-0.148 0.648,-0.192 0.757,-0.255 1.06,-0.427 1.28,-0.577 1.47,-0.74 1.533,-0.794 1.587,-0.854 1.645,-0.917 l 0.033,-0.035 c 0.02,-0.021 0.038,-0.043 0.057,-0.066 l 0.01,-0.012 c 0.033,-0.038 0.069,-0.082 0.11,-0.12 0.032,-0.03 0.092,-0.067 0.15,-0.072 0.243,-0.021 0.418,-0.08 0.568,-0.189 0.035,-0.025 0.07,-0.05 0.106,-0.074 0.049,-0.034 0.099,-0.068 0.146,-0.105 0.153,-0.119 0.304,-0.194 0.463,-0.227 0.154,-0.033 0.304,0.059 0.352,0.209 0.012,0.035 0.019,0.072 0.026,0.109 l 0.017,0.081 -0.014,0.003 10e-4,0.039 c 0,0.013 -10e-4,0.027 -0.003,0.041 -0.029,0.158 -0.085,0.328 -0.279,0.388 -0.181,0.057 -0.372,0.091 -0.567,0.103 -0.108,0.006 -0.219,0.03 -0.34,0.073 -0.072,0.026 -0.147,0.077 -0.208,0.14 C 2.18,-0.535 2.092,-0.426 2.012,-0.308 1.837,-0.052 1.582,0.08 1.378,0.167 L 1.343,0.182 C 1.098,0.287 0.845,0.395 0.628,0.56 0.6,0.582 0.568,0.596 0.533,0.611 0.509,0.622 0.492,0.63 0.476,0.639 0.369,0.698 0.252,0.716 0.14,0.733 L 0.081,0.742 C 0.053,0.747 0.026,0.749 -0.002,0.749 -0.161,0.749 -0.308,0.677 -0.378,0.565 -0.392,0.542 -0.4,0.499 -0.388,0.47 -0.308,0.286 -0.212,0.097 0,0"
           style="fill:none;fill-opacity:1;fill-rule:nonzero;stroke:#000eff;stroke-width:0.197956;stroke-dasharray:none;stroke-opacity:1"
           id="path77197" />
      </g>
      <g
         id="g77199"
         transform="translate(79.5816,33.1109)"
         style="fill:none;fill-opacity:1;stroke:#000eff;stroke-width:0.197956;stroke-dasharray:none;stroke-opacity:1">
        <path
           d="M 0,0 C -0.008,0 -0.016,-0.001 -0.023,-0.002 -0.096,-0.013 -0.181,-0.03 -0.252,-0.067 -0.366,-0.126 -0.473,-0.2 -0.567,-0.265 -0.665,-0.333 -0.761,-0.402 -0.857,-0.469 L -0.932,-0.523 C -1.026,-0.589 -1.12,-0.656 -1.214,-0.722 -1.271,-0.761 -1.329,-0.793 -1.386,-0.815 -1.446,-0.839 -1.507,-0.86 -1.568,-0.881 -1.629,-0.902 -1.69,-0.922 -1.749,-0.946 l -0.078,-0.031 c -0.143,-0.056 -0.287,-0.114 -0.422,-0.184 -0.152,-0.08 -0.249,-0.193 -0.287,-0.337 -0.043,-0.162 0.039,-0.334 0.183,-0.382 0.062,-0.02 0.129,-0.031 0.177,-0.039 l 0.016,-0.003 c 0.015,-0.003 0.03,-0.005 0.044,-0.008 v -0.001 l 0.007,0.001 c 0.19,0.014 0.407,0.053 0.569,0.228 0.058,0.063 0.119,0.123 0.18,0.183 l 0.107,0.107 c 0.016,0.017 0.034,0.036 0.054,0.047 0.225,0.12 0.468,0.239 0.746,0.257 0.277,0.018 0.451,0.201 0.558,0.338 0.041,0.053 0.062,0.119 0.072,0.165 0.015,0.07 0.017,0.14 0.016,0.206 0,0.076 -0.004,0.146 -0.014,0.214 C 0.163,-0.078 0.088,0 0,0"
           style="fill:none;fill-opacity:1;fill-rule:nonzero;stroke:#000eff;stroke-width:0.197956;stroke-dasharray:none;stroke-opacity:1"
           id="path77201" />
      </g>
      <g
         id="g77203"
         transform="translate(75.1974,23.6363)"
         style="fill:none;fill-opacity:1;stroke:#000eff;stroke-width:0.197956;stroke-dasharray:none;stroke-opacity:1">
        <path
           d="m 0,0 c 0.017,-0.089 0.035,-0.181 0.113,-0.245 0.119,-0.097 0.269,-0.13 0.447,-0.1 0.102,0.018 0.175,0.075 0.217,0.167 0.068,0.152 0.104,0.313 0.133,0.465 0.023,0.123 0.051,0.242 0.08,0.365 L 0.995,0.669 C 1.027,0.81 1.061,0.955 1.085,1.101 1.12,1.318 1.096,1.495 1.007,1.657 0.956,1.749 0.834,1.814 0.712,1.814 0.679,1.814 0.647,1.809 0.618,1.799 0.479,1.753 0.315,1.578 0.285,1.445 0.254,1.305 0.227,1.178 0.219,1.046 0.21,0.913 0.176,0.779 0.116,0.635 0.04,0.451 0.001,0.282 -0.005,0.116 L -0.006,0.09 C -0.007,0.067 -0.008,0.043 -0.003,0.018 Z"
           style="fill:none;fill-opacity:1;fill-rule:nonzero;stroke:#000eff;stroke-width:0.197956;stroke-dasharray:none;stroke-opacity:1"
           id="path77205" />
      </g>
      <g
         id="g77207"
         transform="translate(76.7181,34.1318)"
         style="fill:none;fill-opacity:1;stroke:#000eff;stroke-width:0.197956;stroke-dasharray:none;stroke-opacity:1">
        <path
           d="m 0,0 c -0.139,-0.03 -0.223,-0.135 -0.293,-0.244 -0.121,-0.189 -0.075,-0.379 0.124,-0.508 0.089,-0.058 0.177,-0.106 0.261,-0.144 0.155,-0.068 0.275,-0.114 0.391,-0.15 0.034,-0.01 0.066,-0.024 0.099,-0.039 0.093,-0.04 0.183,-0.08 0.29,-0.066 l 0.007,0.001 0.007,-0.001 c 0.095,-0.015 0.181,0.017 0.234,0.086 0.085,0.114 0.117,0.236 0.093,0.355 -0.058,0.277 -0.216,0.451 -0.469,0.518 -0.05,0.013 -0.099,0.032 -0.145,0.05 -0.032,0.013 -0.058,0.024 -0.085,0.033 l -0.09,0.033 C 0.349,-0.047 0.264,-0.015 0.178,0.009 0.138,0.019 0.076,0.017 0,0"
           style="fill:none;fill-opacity:1;fill-rule:nonzero;stroke:#000eff;stroke-width:0.197956;stroke-dasharray:none;stroke-opacity:1"
           id="path77209" />
      </g>
      <g
         id="g77211"
         transform="translate(76.3664,17.5644)"
         style="fill:none;fill-opacity:1;stroke:#000eff;stroke-width:0.197956;stroke-dasharray:none;stroke-opacity:1">
        <path
           d="m 0,0 c -0.072,0.044 -0.129,0.063 -0.178,0.063 -0.098,0 -0.163,-0.077 -0.213,-0.154 l -0.013,-0.02 c -0.057,-0.086 -0.113,-0.17 -0.159,-0.258 -0.056,-0.104 -0.081,-0.212 -0.075,-0.323 -0.013,-0.111 0.019,-0.199 0.091,-0.26 0.083,-0.071 0.217,-0.114 0.358,-0.114 0.095,0 0.177,0.019 0.243,0.057 0.019,0.011 0.04,0.022 0.053,0.042 0.132,0.203 0.25,0.424 0.114,0.703 C 0.177,-0.173 0.116,-0.069 0,0"
           style="fill:none;fill-opacity:1;fill-rule:nonzero;stroke:#000eff;stroke-width:0.197956;stroke-dasharray:none;stroke-opacity:1"
           id="path77213" />
      </g>
    </g>
    <rect
       style="fill:none;fill-opacity:1;stroke:#000eff;stroke-width:0.16;stroke-linejoin:miter;stroke-dasharray:none;stroke-dashoffset:0;stroke-opacity:1"
       id="rect6"
       width="29.966843"
       height="0.96684045"
       x="83.606789"
       y="69.877312"
       ry="0.48342022" />
    <rect
       style="fill:none;fill-opacity:1;stroke:#000eff;stroke-width:0.16;stroke-linejoin:miter;stroke-dasharray:none;stroke-dashoffset:0;stroke-opacity:1"
       id="rect6-9"
       width="29.966843"
       height="0.96684045"
       x="83.606789"
       y="94.27169"
       ry="0.48342022" />
    <g
       id="text115372"
       style="font-size:1.07161px;font-family:calibri;-inkscape-font-specification:calibri;text-align:center;baseline-shift:baseline;text-anchor:middle;fill:none;fill-opacity:1;stroke:#000eff;stroke-width:0.0166996;stroke-opacity:1"
       transform="matrix(11.590766,0,0,12.141065,-1241.4856,131.17566)"
       aria-label="Multi-Engineering Platform&#10;for Living Systems &#10;MEP CENTURI">
      <path
         style="font-weight:bold;-inkscape-font-specification:'calibri Bold';baseline-shift:baseline;vector-effect:none;fill:none;stroke:#000eff;stroke-opacity:1;stop-color:#000000;stop-opacity:1"
         d="m 113.3851,-4.1753027 q 0,0.00523 -0.003,0.00942 -0.003,0.00419 -0.0105,0.0068 -0.007,0.00262 -0.0199,0.00419 -0.0126,0.00157 -0.0319,0.00157 -0.0188,0 -0.0314,-0.00157 -0.0126,-0.00157 -0.0199,-0.00419 -0.007,-0.00262 -0.0105,-0.0068 -0.003,-0.00419 -0.003,-0.00942 v -0.5509791 h -10e-4 l -0.19622,0.5504559 q -0.002,0.0068 -0.007,0.011511 -0.005,0.00419 -0.0131,0.0068 -0.008,0.00262 -0.0204,0.00314 -0.0126,0.00105 -0.0303,0.00105 -0.0178,0 -0.0303,-0.00157 -0.0126,-0.00105 -0.0209,-0.00366 -0.008,-0.00314 -0.0126,-0.00733 -0.005,-0.00419 -0.006,-0.00994 l -0.18941,-0.5504559 h -0.001 v 0.5509791 q 0,0.00523 -0.003,0.00942 -0.003,0.00419 -0.0105,0.0068 -0.008,0.00262 -0.0204,0.00419 -0.012,0.00157 -0.0314,0.00157 -0.0188,0 -0.0314,-0.00157 -0.0126,-0.00157 -0.0204,-0.00419 -0.007,-0.00262 -0.0105,-0.0068 -0.003,-0.00419 -0.003,-0.00942 v -0.6033038 q 0,-0.026686 0.0141,-0.040813 0.0141,-0.014128 0.0377,-0.014128 h 0.09 q 0.0241,0 0.0413,0.00419 0.0173,0.00366 0.0298,0.013081 0.0126,0.0089 0.0209,0.024069 0.008,0.014651 0.0146,0.036627 l 0.14651,0.4034234 h 0.002 l 0.15174,-0.402377 q 0.007,-0.021976 0.0147,-0.037151 0.008,-0.015174 0.0188,-0.024593 0.011,-0.00942 0.0256,-0.013081 0.0147,-0.00419 0.034,-0.00419 h 0.0926 q 0.0141,0 0.0241,0.00366 0.0105,0.00366 0.0167,0.010988 0.007,0.0068 0.01,0.017267 0.004,0.00994 0.004,0.023023 z m 0.54888,-0.035058 q 0,0.015174 -0.002,0.025639 -10e-4,0.00994 -0.004,0.016221 -0.003,0.00628 -0.007,0.00942 -0.004,0.00262 -0.008,0.00262 h -0.34011 q -0.0173,0 -0.0293,-0.00994 -0.0115,-0.010465 -0.0115,-0.033488 V -4.790118 q 0,-0.023023 0.0115,-0.032965 0.012,-0.010465 0.0293,-0.010465 h 0.33801 q 0.005,0 0.008,0.00262 0.004,0.00262 0.006,0.00942 0.003,0.00628 0.004,0.016744 0.002,0.00994 0.002,0.025639 0,0.014651 -0.002,0.025116 -0.001,0.00994 -0.004,0.016221 -0.003,0.00628 -0.006,0.00942 -0.004,0.00262 -0.008,0.00262 h -0.24174 v 0.1653461 h 0.20459 q 0.005,0 0.008,0.00314 0.004,0.00262 0.007,0.0089 0.003,0.00576 0.004,0.016221 0.002,0.00994 0.002,0.024593 0,0.015174 -0.002,0.025116 -0.001,0.00994 -0.004,0.016221 -0.003,0.00576 -0.007,0.00837 -0.004,0.00262 -0.008,0.00262 h -0.20459 v 0.1909851 h 0.24384 q 0.005,0 0.008,0.00314 0.004,0.00262 0.007,0.0089 0.003,0.00628 0.004,0.016744 0.002,0.00994 0.002,0.025116 z m 0.58499,-0.4175512 q 0,0.057034 -0.0178,0.1009867 -0.0178,0.043953 -0.0518,0.074301 -0.034,0.029825 -0.0837,0.045522 -0.0492,0.015697 -0.11616,0.015697 h -0.0565 v 0.216101 q 0,0.00523 -0.004,0.00942 -0.003,0.00419 -0.011,0.0068 -0.008,0.00262 -0.0209,0.00419 -0.0131,0.00157 -0.0335,0.00157 -0.0199,0 -0.0335,-0.00157 -0.0131,-0.00157 -0.0209,-0.00419 -0.008,-0.00262 -0.011,-0.0068 -0.003,-0.00419 -0.003,-0.00942 v -0.6090595 q 0,-0.024593 0.0126,-0.036627 0.0131,-0.012558 0.034,-0.012558 h 0.15959 q 0.0241,0 0.0455,0.00209 0.022,0.00157 0.0523,0.00785 0.0303,0.00576 0.0612,0.021976 0.0314,0.016221 0.0534,0.041337 0.022,0.024593 0.0335,0.05808 0.0115,0.032964 0.0115,0.074301 z m -0.14389,0.00994 q 0,-0.035581 -0.0126,-0.058604 -0.0126,-0.023023 -0.0309,-0.034011 -0.0183,-0.010988 -0.0387,-0.013604 -0.0199,-0.00314 -0.0413,-0.00314 h -0.0586 v 0.2297054 h 0.0617 q 0.033,0 0.055,-0.0089 0.0225,-0.0089 0.0366,-0.024593 0.0141,-0.016221 0.0215,-0.038197 0.007,-0.0225 0.007,-0.048662 z m 0.96121,0.3589475 q 0,0.013081 -0.001,0.0225 -5.2e-4,0.0089 -0.002,0.015697 -0.002,0.00628 -0.004,0.010988 -0.003,0.00471 -0.008,0.010988 -0.006,0.00576 -0.0225,0.015174 -0.0162,0.00942 -0.0403,0.018314 -0.0236,0.00837 -0.0544,0.014128 -0.0303,0.00576 -0.0659,0.00576 -0.0696,0 -0.12558,-0.021453 -0.056,-0.021453 -0.0952,-0.063836 -0.0392,-0.042906 -0.0602,-0.1067424 -0.0209,-0.063836 -0.0209,-0.1486021 0,-0.086336 0.023,-0.1533114 0.023,-0.066976 0.0644,-0.1124981 0.0413,-0.045522 0.0989,-0.069069 0.0581,-0.023546 0.12768,-0.023546 0.0282,0 0.0544,0.00471 0.0262,0.00471 0.0481,0.012558 0.0225,0.00733 0.0403,0.017267 0.0178,0.00994 0.0246,0.017267 0.007,0.0068 0.01,0.011511 0.003,0.00471 0.004,0.012035 0.002,0.00733 0.002,0.017267 10e-4,0.00994 10e-4,0.024593 0,0.015697 -10e-4,0.026686 -0.001,0.010988 -0.004,0.01779 -0.003,0.0068 -0.006,0.00994 -0.004,0.00314 -0.008,0.00314 -0.008,0 -0.0199,-0.0089 -0.012,-0.00942 -0.0314,-0.020407 -0.0188,-0.011511 -0.0455,-0.020407 -0.0262,-0.00942 -0.0628,-0.00942 -0.0403,0 -0.0722,0.016744 -0.0314,0.016221 -0.0539,0.047092 -0.022,0.030348 -0.0335,0.073778 -0.0115,0.04343 -0.0115,0.097847 0,0.05965 0.012,0.1036029 0.0126,0.043429 0.035,0.071685 0.023,0.028255 0.0549,0.042383 0.0325,0.013604 0.0727,0.013604 0.0366,0 0.0633,-0.00837 0.0267,-0.0089 0.0455,-0.01936 0.0194,-0.010465 0.0314,-0.018837 0.0126,-0.00837 0.0194,-0.00837 0.005,0 0.008,0.00209 0.003,0.00209 0.005,0.00837 0.002,0.00628 0.003,0.01779 0.001,0.010988 0.001,0.029825 z m 0.50022,0.048662 q 0,0.015174 -0.002,0.025639 -10e-4,0.00994 -0.004,0.016221 -0.003,0.00628 -0.007,0.00942 -0.004,0.00262 -0.008,0.00262 h -0.34011 q -0.0173,0 -0.0293,-0.00994 -0.0115,-0.010465 -0.0115,-0.033488 V -4.790118 q 0,-0.023023 0.0115,-0.032965 0.012,-0.010465 0.0293,-0.010465 h 0.33802 q 0.005,0 0.008,0.00262 0.004,0.00262 0.006,0.00942 0.003,0.00628 0.004,0.016744 0.002,0.00994 0.002,0.025639 0,0.014651 -0.002,0.025116 -10e-4,0.00994 -0.004,0.016221 -0.003,0.00628 -0.006,0.00942 -0.004,0.00262 -0.008,0.00262 h -0.24174 v 0.1653461 h 0.20459 q 0.005,0 0.008,0.00314 0.004,0.00262 0.007,0.0089 0.003,0.00576 0.004,0.016221 0.002,0.00994 0.002,0.024593 0,0.015174 -0.002,0.025116 -0.001,0.00994 -0.004,0.016221 -0.003,0.00576 -0.007,0.00837 -0.004,0.00262 -0.008,0.00262 h -0.20459 v 0.1909851 h 0.24383 q 0.005,0 0.008,0.00314 0.004,0.00262 0.007,0.0089 0.003,0.00628 0.004,0.016744 0.002,0.00994 0.002,0.025116 z m 0.6797,0.00576 q 0,0.012035 -0.004,0.021453 -0.004,0.00942 -0.0115,0.015697 -0.007,0.00628 -0.0167,0.00942 -0.009,0.00262 -0.0194,0.00262 h -0.0586 q -0.0183,0 -0.0319,-0.00366 -0.0131,-0.00366 -0.0246,-0.013081 -0.011,-0.00994 -0.0215,-0.026162 -0.0105,-0.016744 -0.0236,-0.042906 l -0.16848,-0.3165645 q -0.0147,-0.028255 -0.0298,-0.060697 -0.0152,-0.032965 -0.0272,-0.063836 h -0.001 q 0.002,0.037674 0.003,0.075348 0.001,0.037151 0.001,0.076917 v 0.3542383 q 0,0.00523 -0.003,0.00942 -0.003,0.00419 -0.01,0.00733 -0.007,0.00262 -0.0188,0.00419 -0.012,0.00157 -0.0309,0.00157 -0.0183,0 -0.0303,-0.00157 -0.012,-0.00157 -0.0188,-0.00419 -0.007,-0.00314 -0.009,-0.00733 -0.003,-0.00419 -0.003,-0.00942 v -0.6085363 q 0,-0.024593 0.0141,-0.036627 0.0147,-0.012558 0.0356,-0.012558 h 0.0738 q 0.0199,0 0.0335,0.00366 0.0136,0.00314 0.0241,0.010988 0.011,0.00785 0.0204,0.021976 0.009,0.013604 0.0194,0.034011 l 0.13186,0.2474958 q 0.0115,0.0225 0.0225,0.044476 0.0115,0.021453 0.022,0.04343 0.0105,0.021453 0.0204,0.042383 0.01,0.02093 0.0194,0.04186 h 5.3e-4 q -0.002,-0.036627 -0.003,-0.076394 -5.2e-4,-0.039767 -5.2e-4,-0.075871 V -4.813133 q 0,-0.00523 0.003,-0.00942 0.003,-0.00419 0.0105,-0.00733 0.007,-0.00314 0.0194,-0.00419 0.012,-0.00157 0.0309,-0.00157 0.0178,0 0.0298,0.00157 0.012,0.00105 0.0183,0.00419 0.007,0.00314 0.009,0.00733 0.003,0.00419 0.003,0.00942 z m 0.59807,-0.5724323 q 0,0.015174 -0.002,0.026162 -0.001,0.010465 -0.004,0.017267 -0.003,0.00628 -0.007,0.00942 -0.004,0.00314 -0.008,0.00314 h -0.16953 v 0.5457466 q 0,0.00523 -0.004,0.00942 -0.003,0.00419 -0.011,0.0068 -0.008,0.00262 -0.0215,0.00419 -0.0131,0.00157 -0.033,0.00157 -0.0199,0 -0.0335,-0.00157 -0.0131,-0.00157 -0.0209,-0.00419 -0.008,-0.00262 -0.0115,-0.0068 -0.003,-0.00419 -0.003,-0.00942 v -0.5457466 h -0.16953 q -0.005,0 -0.009,-0.00314 -0.004,-0.00314 -0.006,-0.00942 -0.003,-0.0068 -0.004,-0.017267 -10e-4,-0.010988 -10e-4,-0.026162 0,-0.015697 10e-4,-0.026686 0.002,-0.010988 0.004,-0.017267 0.003,-0.0068 0.006,-0.00942 0.004,-0.00314 0.009,-0.00314 h 0.4772 q 0.005,0 0.008,0.00314 0.004,0.00262 0.007,0.00942 0.003,0.00628 0.004,0.017267 0.002,0.010988 0.002,0.026686 z m 0.63261,0.3683659 q 0,0.062266 -0.0183,0.1114517 -0.0183,0.049185 -0.0539,0.083196 -0.0356,0.034011 -0.0879,0.051801 -0.0523,0.01779 -0.12035,0.01779 -0.0638,0 -0.11459,-0.015697 -0.0508,-0.016221 -0.0858,-0.048662 -0.0351,-0.032441 -0.0539,-0.08058 -0.0183,-0.048662 -0.0183,-0.1135446 v -0.4117955 q 0,-0.00523 0.003,-0.00942 0.003,-0.00419 0.011,-0.0068 0.008,-0.00262 0.0215,-0.00419 0.0131,-0.00157 0.0335,-0.00157 0.0199,0 0.033,0.00157 0.0131,0.00157 0.0209,0.00419 0.008,0.00262 0.011,0.0068 0.004,0.00419 0.004,0.00942 v 0.3997608 q 0,0.04029 0.01,0.070115 0.01,0.029302 0.0282,0.048662 0.0188,0.01936 0.0445,0.029302 0.0262,0.00942 0.0581,0.00942 0.0324,0 0.0581,-0.00994 0.0256,-0.00994 0.0434,-0.028779 0.0178,-0.01936 0.0272,-0.047092 0.01,-0.028255 0.01,-0.063836 v -0.4076095 q 0,-0.00523 0.003,-0.00942 0.003,-0.00419 0.011,-0.0068 0.008,-0.00262 0.0209,-0.00419 0.0136,-0.00157 0.0335,-0.00157 0.0199,0 0.0324,0.00157 0.0131,0.00157 0.0209,0.00419 0.008,0.00262 0.011,0.0068 0.003,0.00419 0.003,0.00942 z m 0.64934,0.2344147 q 0,0.00576 -0.002,0.00994 -0.002,0.00366 -0.01,0.00628 -0.008,0.00262 -0.023,0.00366 -0.0152,0.00105 -0.0413,0.00105 -0.022,0 -0.0351,-0.00105 -0.0131,-0.00105 -0.0209,-0.00366 -0.007,-0.00314 -0.0105,-0.00733 -0.003,-0.00471 -0.005,-0.010988 l -0.0607,-0.1512184 q -0.011,-0.025639 -0.0215,-0.045522 -0.0105,-0.019883 -0.0236,-0.032965 -0.0126,-0.013604 -0.0293,-0.020407 -0.0167,-0.0068 -0.0387,-0.0068 h -0.0429 v 0.2579608 q 0,0.00523 -0.004,0.00942 -0.003,0.00419 -0.011,0.0068 -0.008,0.00262 -0.0209,0.00419 -0.0131,0.00157 -0.0335,0.00157 -0.0199,0 -0.0335,-0.00157 -0.0131,-0.00157 -0.0209,-0.00419 -0.008,-0.00262 -0.011,-0.0068 -0.003,-0.00419 -0.003,-0.00942 V -4.790118 q 0,-0.023023 0.0115,-0.032965 0.012,-0.010465 0.0293,-0.010465 h 0.17529 q 0.0267,0 0.0439,0.00105 0.0173,0.00105 0.0314,0.00262 0.0408,0.00576 0.0732,0.019883 0.033,0.014128 0.0555,0.037151 0.023,0.0225 0.0351,0.053894 0.012,0.030872 0.012,0.071162 0,0.034011 -0.009,0.062266 -0.008,0.027732 -0.0251,0.049709 -0.0168,0.021976 -0.0413,0.038197 -0.0246,0.016221 -0.056,0.026162 0.0152,0.00733 0.0283,0.01779 0.0136,0.010465 0.0251,0.025639 0.012,0.014651 0.0225,0.034011 0.0105,0.018837 0.0204,0.042906 l 0.057,0.133428 q 0.008,0.019883 0.0105,0.029302 0.003,0.0089 0.003,0.014128 z m -0.17738,-0.4594109 q 0,-0.033488 -0.0152,-0.056511 -0.0152,-0.023023 -0.0497,-0.032441 -0.0105,-0.00262 -0.0241,-0.00419 -0.0131,-0.00157 -0.0366,-0.00157 h -0.0617 v 0.1920317 h 0.0701 q 0.0293,0 0.0513,-0.0068 0.022,-0.00733 0.0366,-0.019883 0.0147,-0.013081 0.022,-0.030872 0.007,-0.01779 0.007,-0.039767 z m 0.41651,0.4583644 q 0,0.00523 -0.004,0.00942 -0.003,0.00419 -0.011,0.0068 -0.008,0.00262 -0.0209,0.00419 -0.0131,0.00157 -0.0335,0.00157 -0.0199,0 -0.0335,-0.00157 -0.0131,-0.00157 -0.0209,-0.00419 -0.008,-0.00262 -0.0115,-0.0068 -0.003,-0.00419 -0.003,-0.00942 v -0.6394079 q 0,-0.00523 0.003,-0.00942 0.004,-0.00419 0.0115,-0.0068 0.008,-0.00262 0.0215,-0.00419 0.0131,-0.00157 0.033,-0.00157 0.0204,0 0.0335,0.00157 0.0131,0.00157 0.0209,0.00419 0.008,0.00262 0.011,0.0068 0.004,0.00419 0.004,0.00942 z"
         id="path8" />
    </g>
    <text
       xml:space="preserve"
       style="font-style:normal;font-variant:normal;font-weight:normal;font-stretch:normal;font-size:7.23931px;line-height:normal;font-family:calibri;-inkscape-font-specification:calibri;font-variant-ligatures:normal;font-variant-position:normal;font-variant-caps:normal;font-variant-numeric:normal;font-variant-alternates:normal;font-variant-east-asian:normal;text-indent:0;text-align:center;text-decoration:none;text-decoration-line:none;text-decoration-style:solid;text-decoration-color:#000000;letter-spacing:normal;word-spacing:normal;text-transform:none;writing-mode:lr-tb;direction:ltr;text-orientation:mixed;dominant-baseline:auto;baseline-shift:baseline;text-anchor:middle;white-space:normal;shape-padding:0;shape-margin:0;display:inline;vector-effect:none;fill:none;fill-opacity:1;stroke:#000eff;stroke-width:0.112815;stroke-linecap:butt;stroke-linejoin:miter;stroke-miterlimit:4;stroke-dasharray:none;stroke-dashoffset:0;stroke-opacity:1;stop-color:#000000"
       x="98.61351"
       y="85.962761"
       id="text115372-7"><tspan
         sodipodi:role="line"
         x="98.61351"
         y="85.962761"
         style="font-style:normal;font-variant:normal;font-weight:bold;font-stretch:normal;font-size:5.29167px;line-height:normal;font-family:calibri;-inkscape-font-specification:'calibri, Bold';font-variant-ligatures:normal;font-variant-position:normal;font-variant-caps:normal;font-variant-numeric:normal;font-variant-alternates:normal;font-variant-east-asian:normal;text-indent:0;text-align:center;text-decoration:none;text-decoration-line:none;text-decoration-style:solid;text-decoration-color:#000000;letter-spacing:normal;word-spacing:normal;text-transform:none;writing-mode:lr-tb;direction:ltr;text-orientation:mixed;dominant-baseline:auto;baseline-shift:baseline;text-anchor:middle;white-space:normal;shape-padding:0;shape-margin:0;inline-size:0;vector-effect:none;fill:none;fill-opacity:1;stroke:#000eff;stroke-width:0.112815;stroke-linecap:butt;stroke-linejoin:miter;stroke-miterlimit:4;stroke-dasharray:none;stroke-dashoffset:0;stroke-opacity:1;stop-color:#000000;stop-opacity:1"
         id="tspan1">Stage d'observation de Seconde</tspan></text>
    <text
       xml:space="preserve"
       style="font-style:normal;font-variant:normal;font-weight:normal;font-stretch:normal;font-size:7.23931px;line-height:normal;font-family:calibri;-inkscape-font-specification:calibri;font-variant-ligatures:normal;font-variant-position:normal;font-variant-caps:normal;font-variant-numeric:normal;font-variant-alternates:normal;font-variant-east-asian:normal;text-indent:0;text-align:center;text-decoration:none;text-decoration-line:none;text-decoration-style:solid;text-decoration-color:#000000;letter-spacing:normal;word-spacing:normal;text-transform:none;writing-mode:lr-tb;direction:ltr;text-orientation:mixed;dominant-baseline:auto;baseline-shift:baseline;text-anchor:middle;white-space:normal;shape-padding:0;shape-margin:0;display:inline;vector-effect:none;fill:#1590ba;fill-opacity:1;stroke:none;stroke-width:0.112815;stroke-linecap:butt;stroke-linejoin:miter;stroke-miterlimit:4;stroke-dasharray:none;stroke-dashoffset:0;stroke-opacity:1;stop-color:#000000"
       x="20.050425"
       y="87.027534"
       id="text115372-7-1"><tspan
         sodipodi:role="line"
         x="20.050425"
         y="87.027534"
         style="font-style:normal;font-variant:normal;font-weight:bold;font-stretch:normal;font-size:5.29167px;line-height:normal;font-family:calibri;-inkscape-font-specification:'calibri, Bold';font-variant-ligatures:normal;font-variant-position:normal;font-variant-caps:normal;font-variant-numeric:normal;font-variant-alternates:normal;font-variant-east-asian:normal;text-indent:0;text-align:center;text-decoration:none;text-decoration-line:none;text-decoration-style:solid;text-decoration-color:#000000;letter-spacing:normal;word-spacing:normal;text-transform:none;writing-mode:lr-tb;direction:ltr;text-orientation:mixed;dominant-baseline:auto;baseline-shift:baseline;text-anchor:middle;white-space:normal;shape-padding:0;shape-margin:0;inline-size:0;vector-effect:none;fill:#1590ba;fill-opacity:1;stroke:none;stroke-width:0.112815;stroke-linecap:butt;stroke-linejoin:miter;stroke-miterlimit:4;stroke-dasharray:none;stroke-dashoffset:0;stroke-opacity:1;stop-color:#000000;stop-opacity:1"
         id="tspan1-2">Stage d'observation de Seconde</tspan></text>
    <text
       xml:space="preserve"
       style="font-style:normal;font-variant:normal;font-weight:normal;font-stretch:normal;font-size:7.23931px;line-height:normal;font-family:calibri;-inkscape-font-specification:calibri;font-variant-ligatures:normal;font-variant-position:normal;font-variant-caps:normal;font-variant-numeric:normal;font-variant-alternates:normal;font-variant-east-asian:normal;text-indent:0;text-align:center;text-decoration:none;text-decoration-line:none;text-decoration-style:solid;text-decoration-color:#000000;letter-spacing:normal;word-spacing:normal;text-transform:none;writing-mode:lr-tb;direction:ltr;text-orientation:mixed;dominant-baseline:auto;baseline-shift:baseline;text-anchor:middle;white-space:normal;shape-padding:0;shape-margin:0;display:inline;vector-effect:none;fill:none;fill-opacity:1;stroke:#000eff;stroke-width:0.112815;stroke-linecap:butt;stroke-linejoin:miter;stroke-miterlimit:4;stroke-dasharray:none;stroke-dashoffset:0;stroke-opacity:1;stop-color:#000000"
       x="98.479149"
       y="91.859848"
       id="text115372-7-1-1"><tspan
         sodipodi:role="line"
         x="98.479149"
         y="91.859848"
         style="font-style:normal;font-variant:normal;font-weight:bold;font-stretch:normal;font-size:5.29167px;line-height:normal;font-family:calibri;-inkscape-font-specification:'calibri, Bold';font-variant-ligatures:normal;font-variant-position:normal;font-variant-caps:normal;font-variant-numeric:normal;font-variant-alternates:normal;font-variant-east-asian:normal;text-indent:0;text-align:center;text-decoration:none;text-decoration-line:none;text-decoration-style:solid;text-decoration-color:#000000;letter-spacing:normal;word-spacing:normal;text-transform:none;writing-mode:lr-tb;direction:ltr;text-orientation:mixed;dominant-baseline:auto;baseline-shift:baseline;text-anchor:middle;white-space:normal;shape-padding:0;shape-margin:0;inline-size:0;vector-effect:none;fill:none;fill-opacity:1;stroke:#000eff;stroke-width:0.112815;stroke-linecap:butt;stroke-linejoin:miter;stroke-miterlimit:4;stroke-dasharray:none;stroke-dashoffset:0;stroke-opacity:1;stop-color:#000000;stop-opacity:1"
         id="tspan1-2-3">15 - 26 juin 2026</tspan></text>
  </g>
</svg>
